<svg xmlns="http://www.w3.org/2000/svg" xmlns:xlink="http://www.w3.org/1999/xlink" width="500" zoomAndPan="magnify" viewBox="0 0 375 374.999991" height="500" preserveAspectRatio="xMidYMid meet" version="1.0"><defs><g/><clipPath id="a1fac94736"><path d="M 280 163 L 292 163 L 292 175 L 280 175 Z M 280 163 " clip-rule="nonzero"/></clipPath><clipPath id="1eca6c663e"><path d="M 278.722656 165.335938 L 285.882812 158.71875 L 296.0625 169.734375 L 288.902344 176.351562 Z M 278.722656 165.335938 " clip-rule="nonzero"/></clipPath><clipPath id="3f161d4f6e"><path d="M 278.722656 165.335938 L 285.882812 158.71875 L 296.0625 169.734375 L 288.902344 176.351562 Z M 278.722656 165.335938 " clip-rule="nonzero"/></clipPath><clipPath id="9ec4408960"><path d="M 289 155 L 300 155 L 300 166 L 289 166 Z M 289 155 " clip-rule="nonzero"/></clipPath><clipPath id="c20e220767"><path d="M 287.546875 156.632812 L 294.707031 150.015625 L 304.886719 161.027344 L 297.726562 167.648438 Z M 287.546875 156.632812 " clip-rule="nonzero"/></clipPath><clipPath id="5ba458ebdb"><path d="M 287.546875 156.632812 L 294.707031 150.015625 L 304.886719 161.027344 L 297.726562 167.648438 Z M 287.546875 156.632812 " clip-rule="nonzero"/></clipPath></defs><rect x="-37.5" width="450" fill="#ffffff" y="-37.499999" height="449.999989" fill-opacity="1"/><rect x="-37.5" width="450" fill="#ffffff" y="-37.499999" height="449.999989" fill-opacity="1"/><g clip-path="url(#a1fac94736)"><g clip-path="url(#1eca6c663e)"><g clip-path="url(#3f161d4f6e)"><path fill="#4f46e5" d="M 291.324219 164.105469 L 282.3125 163.703125 C 280.570312 163.625 280.277344 167.015625 282.339844 167.074219 L 287.949219 167.226562 L 287.519531 172.867188 C 287.390625 174.585938 290.738281 174.765625 290.835938 173.019531 Z M 291.324219 164.105469 " fill-opacity="1" fill-rule="nonzero"/></g></g></g><g clip-path="url(#9ec4408960)"><g clip-path="url(#c20e220767)"><g clip-path="url(#5ba458ebdb)"><path fill="#0cc0df" d="M 299.847656 155.4375 L 291.054688 155.046875 C 289.355469 154.96875 289.070312 158.277344 291.082031 158.332031 L 296.550781 158.480469 L 296.132812 163.984375 C 296.007812 165.664062 299.277344 165.839844 299.371094 164.136719 Z M 299.847656 155.4375 " fill-opacity="1" fill-rule="nonzero"/></g></g></g><g fill="#ffffff" fill-opacity="1"><g transform="translate(61.768959, 188.882918)"><g><path d="M 6.0625 -18.90625 L 6.0625 -11.9375 L 17.25 -11.9375 C 17.863281 -11.9375 18.320312 -11.753906 18.625 -11.390625 C 18.925781 -11.023438 19.078125 -10.632812 19.078125 -10.21875 C 19.078125 -9.800781 18.925781 -9.421875 18.625 -9.078125 C 18.320312 -8.742188 17.863281 -8.578125 17.25 -8.578125 L 6.0625 -8.578125 L 6.0625 -1.890625 C 6.0625 -1.285156 5.847656 -0.816406 5.421875 -0.484375 C 5.003906 -0.160156 4.550781 0 4.0625 0 C 3.550781 0 3.082031 -0.160156 2.65625 -0.484375 C 2.238281 -0.816406 2.03125 -1.273438 2.03125 -1.859375 L 2.03125 -20.234375 C 2.03125 -20.785156 2.253906 -21.265625 2.703125 -21.671875 C 3.160156 -22.085938 3.695312 -22.296875 4.3125 -22.296875 L 17.890625 -22.296875 C 18.515625 -22.296875 18.976562 -22.117188 19.28125 -21.765625 C 19.582031 -21.421875 19.734375 -21.023438 19.734375 -20.578125 C 19.734375 -20.160156 19.582031 -19.773438 19.28125 -19.421875 C 18.976562 -19.078125 18.515625 -18.90625 17.890625 -18.90625 Z M 6.0625 -18.90625 "/></g></g></g><g fill="#ffffff" fill-opacity="1"><g transform="translate(82.029017, 188.882918)"><g><path d="M 5.25 -20.4375 C 5.25 -19.851562 5.03125 -19.414062 4.59375 -19.125 C 4.164062 -18.832031 3.707031 -18.6875 3.21875 -18.6875 C 2.707031 -18.6875 2.238281 -18.832031 1.8125 -19.125 C 1.394531 -19.414062 1.1875 -19.851562 1.1875 -20.4375 L 1.1875 -20.890625 C 1.1875 -21.503906 1.394531 -21.945312 1.8125 -22.21875 C 2.238281 -22.5 2.707031 -22.640625 3.21875 -22.640625 C 3.707031 -22.640625 4.164062 -22.5 4.59375 -22.21875 C 5.03125 -21.945312 5.25 -21.503906 5.25 -20.890625 Z M 1.21875 -16.09375 C 1.21875 -16.65625 1.429688 -17.082031 1.859375 -17.375 C 2.296875 -17.664062 2.75 -17.8125 3.21875 -17.8125 C 3.707031 -17.8125 4.160156 -17.664062 4.578125 -17.375 C 5.003906 -17.082031 5.21875 -16.671875 5.21875 -16.140625 L 5.21875 -1.71875 C 5.21875 -1.132812 5.003906 -0.703125 4.578125 -0.421875 C 4.160156 -0.140625 3.707031 0 3.21875 0 C 2.75 0 2.296875 -0.140625 1.859375 -0.421875 C 1.429688 -0.703125 1.21875 -1.132812 1.21875 -1.71875 Z M 1.21875 -16.09375 "/></g></g></g><g fill="#ffffff" fill-opacity="1"><g transform="translate(87.767359, 188.882918)"><g><path d="M 11.796875 -18.171875 C 13.429688 -18.171875 14.816406 -17.8125 15.953125 -17.09375 C 17.097656 -16.382812 17.972656 -15.398438 18.578125 -14.140625 C 19.191406 -12.878906 19.5 -11.410156 19.5 -9.734375 L 19.5 -1.8125 C 19.5 -1.28125 19.320312 -0.84375 18.96875 -0.5 C 18.613281 -0.164062 18.125 0 17.5 0 C 16.914062 0 16.4375 -0.164062 16.0625 -0.5 C 15.6875 -0.84375 15.5 -1.28125 15.5 -1.8125 L 15.5 -9.796875 C 15.5 -11.242188 15.15625 -12.414062 14.46875 -13.3125 C 13.78125 -14.21875 12.691406 -14.671875 11.203125 -14.671875 C 10.753906 -14.671875 10.222656 -14.546875 9.609375 -14.296875 C 8.992188 -14.054688 8.382812 -13.6875 7.78125 -13.1875 C 7.1875 -12.695312 6.695312 -12.078125 6.3125 -11.328125 C 5.925781 -10.585938 5.734375 -9.707031 5.734375 -8.6875 L 5.734375 -1.78125 C 5.734375 -0.59375 5.09375 0 3.8125 0 C 3.207031 0 2.710938 -0.15625 2.328125 -0.46875 C 1.941406 -0.78125 1.75 -1.21875 1.75 -1.78125 L 1.75 -16.03125 C 1.75 -16.613281 1.953125 -17.054688 2.359375 -17.359375 C 2.765625 -17.660156 3.226562 -17.8125 3.75 -17.8125 C 4.238281 -17.8125 4.691406 -17.660156 5.109375 -17.359375 C 5.523438 -17.054688 5.734375 -16.632812 5.734375 -16.09375 L 5.734375 -15.859375 C 6.742188 -16.785156 7.785156 -17.398438 8.859375 -17.703125 C 9.929688 -18.015625 10.910156 -18.171875 11.796875 -18.171875 Z M 11.796875 -18.171875 "/></g></g></g><g fill="#ffffff" fill-opacity="1"><g transform="translate(109.007191, 188.882918)"><g><path d="M 16.3125 -22.640625 C 16.800781 -22.640625 17.257812 -22.5 17.6875 -22.21875 C 18.125 -21.945312 18.34375 -21.503906 18.34375 -20.890625 L 18.34375 -1.78125 C 18.34375 -0.59375 17.664062 0 16.3125 0 C 15.09375 0 14.460938 -0.5625 14.421875 -1.6875 C 13.671875 -1.03125 12.828125 -0.53125 11.890625 -0.1875 C 10.960938 0.144531 10.078125 0.3125 9.234375 0.3125 C 7.484375 0.3125 5.972656 -0.0820312 4.703125 -0.875 C 3.429688 -1.664062 2.457031 -2.769531 1.78125 -4.1875 C 1.101562 -5.613281 0.765625 -7.25 0.765625 -9.09375 C 0.765625 -10.875 1.125 -12.4375 1.84375 -13.78125 C 2.570312 -15.132812 3.582031 -16.203125 4.875 -16.984375 C 6.175781 -17.773438 7.675781 -18.171875 9.375 -18.171875 C 10.144531 -18.171875 10.972656 -18.015625 11.859375 -17.703125 C 12.742188 -17.398438 13.570312 -16.945312 14.34375 -16.34375 L 14.34375 -20.890625 C 14.34375 -21.503906 14.546875 -21.945312 14.953125 -22.21875 C 15.367188 -22.5 15.820312 -22.640625 16.3125 -22.640625 Z M 9.34375 -3.21875 C 10.507812 -3.21875 11.566406 -3.476562 12.515625 -4 C 13.460938 -4.53125 14.097656 -5.296875 14.421875 -6.296875 L 14.390625 -11.6875 C 13.992188 -12.644531 13.34375 -13.375 12.4375 -13.875 C 11.539062 -14.375 10.613281 -14.625 9.65625 -14.625 C 8.1875 -14.625 7.003906 -14.09375 6.109375 -13.03125 C 5.210938 -11.96875 4.765625 -10.644531 4.765625 -9.0625 C 4.765625 -7.363281 5.179688 -5.960938 6.015625 -4.859375 C 6.859375 -3.765625 7.96875 -3.21875 9.34375 -3.21875 Z M 9.34375 -3.21875 "/></g></g></g><g fill="#ffffff" fill-opacity="1"><g transform="translate(129.267249, 188.882918)"><g/></g></g><g fill="#ffffff" fill-opacity="1"><g transform="translate(137.490023, 188.882918)"><g><path d="M 3.671875 -21.3125 L 10.109375 -12.53125 L 16.5625 -21.203125 C 16.8125 -21.535156 17.09375 -21.800781 17.40625 -22 C 17.726562 -22.195312 18.070312 -22.296875 18.4375 -22.296875 C 18.882812 -22.296875 19.28125 -22.144531 19.625 -21.84375 C 19.976562 -21.539062 20.195312 -21.15625 20.28125 -20.6875 C 20.363281 -20.21875 20.21875 -19.726562 19.84375 -19.21875 L 12.1875 -8.953125 L 12.1875 -2.09375 C 12.1875 -1.445312 11.960938 -0.9375 11.515625 -0.5625 C 11.066406 -0.1875 10.613281 0 10.15625 0 C 9.59375 0 9.113281 -0.1875 8.71875 -0.5625 C 8.320312 -0.9375 8.125 -1.445312 8.125 -2.09375 L 8.125 -8.953125 L 0.28125 -19.3125 C -0.0703125 -19.8125 -0.207031 -20.285156 -0.125 -20.734375 C -0.0390625 -21.191406 0.1875 -21.566406 0.5625 -21.859375 C 0.9375 -22.148438 1.351562 -22.296875 1.8125 -22.296875 C 2.582031 -22.296875 3.203125 -21.96875 3.671875 -21.3125 Z M 3.671875 -21.3125 "/></g></g></g><g fill="#ffffff" fill-opacity="1"><g transform="translate(157.75008, 188.882918)"><g><path d="M 10.015625 -18.171875 C 11.878906 -18.171875 13.507812 -17.773438 14.90625 -16.984375 C 16.3125 -16.203125 17.394531 -15.113281 18.15625 -13.71875 C 18.925781 -12.320312 19.3125 -10.6875 19.3125 -8.8125 C 19.289062 -7 18.890625 -5.398438 18.109375 -4.015625 C 17.328125 -2.640625 16.242188 -1.566406 14.859375 -0.796875 C 13.472656 -0.0351562 11.859375 0.34375 10.015625 0.34375 C 8.191406 0.34375 6.578125 -0.0351562 5.171875 -0.796875 C 3.773438 -1.566406 2.6875 -2.640625 1.90625 -4.015625 C 1.125 -5.398438 0.722656 -7 0.703125 -8.8125 C 0.703125 -10.6875 1.09375 -12.320312 1.875 -13.71875 C 2.65625 -15.113281 3.742188 -16.203125 5.140625 -16.984375 C 6.546875 -17.773438 8.171875 -18.171875 10.015625 -18.171875 Z M 10.015625 -3.15625 C 11.597656 -3.15625 12.859375 -3.675781 13.796875 -4.71875 C 14.742188 -5.769531 15.21875 -7.132812 15.21875 -8.8125 C 15.21875 -10.539062 14.742188 -11.945312 13.796875 -13.03125 C 12.859375 -14.125 11.597656 -14.671875 10.015625 -14.671875 C 8.453125 -14.671875 7.191406 -14.125 6.234375 -13.03125 C 5.273438 -11.945312 4.796875 -10.539062 4.796875 -8.8125 C 4.796875 -7.132812 5.273438 -5.769531 6.234375 -4.71875 C 7.191406 -3.675781 8.453125 -3.15625 10.015625 -3.15625 Z M 10.015625 -3.15625 "/></g></g></g><g fill="#ffffff" fill-opacity="1"><g transform="translate(177.170325, 188.882918)"><g><path d="M 17.1875 -17.8125 C 17.789062 -17.8125 18.28125 -17.625 18.65625 -17.25 C 19.03125 -16.875 19.21875 -16.410156 19.21875 -15.859375 L 19.21875 -1.78125 C 19.21875 -1.195312 19 -0.753906 18.5625 -0.453125 C 18.132812 -0.148438 17.6875 0 17.21875 0 C 16.707031 0 16.242188 -0.15625 15.828125 -0.46875 C 15.421875 -0.78125 15.21875 -1.226562 15.21875 -1.8125 L 15.21875 -1.953125 C 14.269531 -1.023438 13.28125 -0.410156 12.25 -0.109375 C 11.21875 0.191406 10.257812 0.34375 9.375 0.34375 C 6.945312 0.34375 5.054688 -0.414062 3.703125 -1.9375 C 2.359375 -3.46875 1.6875 -5.539062 1.6875 -8.15625 L 1.6875 -15.859375 C 1.6875 -16.390625 1.859375 -16.847656 2.203125 -17.234375 C 2.554688 -17.617188 3.046875 -17.8125 3.671875 -17.8125 C 4.273438 -17.8125 4.757812 -17.617188 5.125 -17.234375 C 5.488281 -16.847656 5.671875 -16.390625 5.671875 -15.859375 L 5.671875 -8.078125 C 5.671875 -6.566406 6.015625 -5.367188 6.703125 -4.484375 C 7.390625 -3.597656 8.476562 -3.15625 9.96875 -3.15625 C 10.414062 -3.15625 10.9375 -3.273438 11.53125 -3.515625 C 12.125 -3.765625 12.703125 -4.132812 13.265625 -4.625 C 13.828125 -5.113281 14.289062 -5.734375 14.65625 -6.484375 C 15.03125 -7.242188 15.21875 -8.140625 15.21875 -9.171875 L 15.21875 -15.859375 C 15.21875 -16.410156 15.378906 -16.875 15.703125 -17.25 C 16.035156 -17.625 16.53125 -17.8125 17.1875 -17.8125 Z M 17.1875 -17.8125 "/></g></g></g><g fill="#ffffff" fill-opacity="1"><g transform="translate(198.305181, 188.882918)"><g><path d="M 9.453125 -17.8125 C 10.078125 -17.8125 10.578125 -17.675781 10.953125 -17.40625 C 11.328125 -17.144531 11.515625 -16.707031 11.515625 -16.09375 C 11.515625 -15.539062 11.328125 -15.097656 10.953125 -14.765625 C 10.578125 -14.441406 10.078125 -14.28125 9.453125 -14.28125 C 7.984375 -14.28125 6.945312 -13.753906 6.34375 -12.703125 C 5.75 -11.648438 5.453125 -10.226562 5.453125 -8.4375 L 5.453125 -1.78125 C 5.453125 -1.269531 5.265625 -0.84375 4.890625 -0.5 C 4.523438 -0.164062 4.070312 0 3.53125 0 C 2.925781 0 2.4375 -0.164062 2.0625 -0.5 C 1.6875 -0.84375 1.5 -1.269531 1.5 -1.78125 L 1.5 -16.03125 C 1.5 -16.59375 1.710938 -17.03125 2.140625 -17.34375 C 2.578125 -17.65625 3.039062 -17.8125 3.53125 -17.8125 C 4.019531 -17.8125 4.460938 -17.660156 4.859375 -17.359375 C 5.253906 -17.054688 5.453125 -16.613281 5.453125 -16.03125 L 5.453125 -15.8125 C 5.972656 -16.488281 6.570312 -16.988281 7.25 -17.3125 C 7.925781 -17.644531 8.660156 -17.8125 9.453125 -17.8125 Z M 9.453125 -17.8125 "/></g></g></g><g fill="#ffffff" fill-opacity="1"><g transform="translate(208.767449, 188.882918)"><g/></g></g><g fill="#ffffff" fill-opacity="1"><g transform="translate(216.990223, 188.882918)"><g><path d="M 0.25 -5.28125 C 0.0820312 -5.957031 0.242188 -6.492188 0.734375 -6.890625 C 1.222656 -7.285156 1.769531 -7.484375 2.375 -7.484375 C 2.84375 -7.484375 3.257812 -7.375 3.625 -7.15625 C 3.988281 -6.9375 4.21875 -6.59375 4.3125 -6.125 C 4.5625 -5.375 5.039062 -4.796875 5.75 -4.390625 C 6.46875 -3.984375 7.269531 -3.703125 8.15625 -3.546875 C 9.039062 -3.398438 9.867188 -3.328125 10.640625 -3.328125 C 11.242188 -3.328125 11.90625 -3.375 12.625 -3.46875 C 13.351562 -3.5625 14.046875 -3.726562 14.703125 -3.96875 C 15.359375 -4.21875 15.894531 -4.5625 16.3125 -5 C 16.726562 -5.445312 16.9375 -6.019531 16.9375 -6.71875 C 16.9375 -7.46875 16.625 -8.015625 16 -8.359375 C 15.382812 -8.710938 14.597656 -8.960938 13.640625 -9.109375 C 12.691406 -9.265625 11.691406 -9.378906 10.640625 -9.453125 C 9.453125 -9.546875 8.253906 -9.6875 7.046875 -9.875 C 5.847656 -10.0625 4.753906 -10.363281 3.765625 -10.78125 C 2.773438 -11.195312 1.972656 -11.804688 1.359375 -12.609375 C 0.753906 -13.421875 0.453125 -14.488281 0.453125 -15.8125 C 0.453125 -17.007812 0.753906 -18.035156 1.359375 -18.890625 C 1.972656 -19.753906 2.769531 -20.460938 3.75 -21.015625 C 4.726562 -21.566406 5.785156 -21.972656 6.921875 -22.234375 C 8.066406 -22.503906 9.191406 -22.640625 10.296875 -22.640625 C 11.503906 -22.640625 12.769531 -22.5 14.09375 -22.21875 C 15.425781 -21.945312 16.644531 -21.453125 17.75 -20.734375 C 18.863281 -20.023438 19.691406 -19.03125 20.234375 -17.75 C 20.421875 -17.09375 20.285156 -16.546875 19.828125 -16.109375 C 19.367188 -15.679688 18.835938 -15.46875 18.234375 -15.46875 C 17.859375 -15.46875 17.5 -15.554688 17.15625 -15.734375 C 16.820312 -15.910156 16.585938 -16.148438 16.453125 -16.453125 C 16.171875 -17.171875 15.679688 -17.703125 14.984375 -18.046875 C 14.285156 -18.398438 13.515625 -18.628906 12.671875 -18.734375 C 11.828125 -18.847656 11.046875 -18.90625 10.328125 -18.90625 C 9.859375 -18.90625 9.300781 -18.859375 8.65625 -18.765625 C 8.019531 -18.671875 7.394531 -18.503906 6.78125 -18.265625 C 6.175781 -18.035156 5.671875 -17.710938 5.265625 -17.296875 C 4.859375 -16.890625 4.65625 -16.382812 4.65625 -15.78125 C 4.65625 -15.039062 4.945312 -14.484375 5.53125 -14.109375 C 6.113281 -13.734375 6.890625 -13.472656 7.859375 -13.328125 C 8.828125 -13.191406 9.882812 -13.078125 11.03125 -12.984375 C 12.238281 -12.867188 13.441406 -12.734375 14.640625 -12.578125 C 15.847656 -12.429688 16.941406 -12.164062 17.921875 -11.78125 C 18.898438 -11.394531 19.679688 -10.8125 20.265625 -10.03125 C 20.847656 -9.25 21.140625 -8.15625 21.140625 -6.75 C 21.140625 -5.351562 20.804688 -4.195312 20.140625 -3.28125 C 19.472656 -2.375 18.601562 -1.648438 17.53125 -1.109375 C 16.457031 -0.578125 15.3125 -0.203125 14.09375 0.015625 C 12.882812 0.234375 11.734375 0.34375 10.640625 0.34375 C 9.734375 0.34375 8.742188 0.253906 7.671875 0.078125 C 6.597656 -0.0859375 5.550781 -0.382812 4.53125 -0.8125 C 3.519531 -1.25 2.628906 -1.828125 1.859375 -2.546875 C 1.085938 -3.273438 0.550781 -4.1875 0.25 -5.28125 Z M 0.25 -5.28125 "/></g></g></g><g fill="#ffffff" fill-opacity="1"><g transform="translate(238.265052, 188.882918)"><g><path d="M 5.25 -20.4375 C 5.25 -19.851562 5.03125 -19.414062 4.59375 -19.125 C 4.164062 -18.832031 3.707031 -18.6875 3.21875 -18.6875 C 2.707031 -18.6875 2.238281 -18.832031 1.8125 -19.125 C 1.394531 -19.414062 1.1875 -19.851562 1.1875 -20.4375 L 1.1875 -20.890625 C 1.1875 -21.503906 1.394531 -21.945312 1.8125 -22.21875 C 2.238281 -22.5 2.707031 -22.640625 3.21875 -22.640625 C 3.707031 -22.640625 4.164062 -22.5 4.59375 -22.21875 C 5.03125 -21.945312 5.25 -21.503906 5.25 -20.890625 Z M 1.21875 -16.09375 C 1.21875 -16.65625 1.429688 -17.082031 1.859375 -17.375 C 2.296875 -17.664062 2.75 -17.8125 3.21875 -17.8125 C 3.707031 -17.8125 4.160156 -17.664062 4.578125 -17.375 C 5.003906 -17.082031 5.21875 -16.671875 5.21875 -16.140625 L 5.21875 -1.71875 C 5.21875 -1.132812 5.003906 -0.703125 4.578125 -0.421875 C 4.160156 -0.140625 3.707031 0 3.21875 0 C 2.75 0 2.296875 -0.140625 1.859375 -0.421875 C 1.429688 -0.703125 1.21875 -1.132812 1.21875 -1.71875 Z M 1.21875 -16.09375 "/></g></g></g><g fill="#ffffff" fill-opacity="1"><g transform="translate(244.003394, 188.882918)"><g><path d="M 16.3125 -22.640625 C 16.800781 -22.640625 17.257812 -22.5 17.6875 -22.21875 C 18.125 -21.945312 18.34375 -21.503906 18.34375 -20.890625 L 18.34375 -1.78125 C 18.34375 -0.59375 17.664062 0 16.3125 0 C 15.09375 0 14.460938 -0.5625 14.421875 -1.6875 C 13.671875 -1.03125 12.828125 -0.53125 11.890625 -0.1875 C 10.960938 0.144531 10.078125 0.3125 9.234375 0.3125 C 7.484375 0.3125 5.972656 -0.0820312 4.703125 -0.875 C 3.429688 -1.664062 2.457031 -2.769531 1.78125 -4.1875 C 1.101562 -5.613281 0.765625 -7.25 0.765625 -9.09375 C 0.765625 -10.875 1.125 -12.4375 1.84375 -13.78125 C 2.570312 -15.132812 3.582031 -16.203125 4.875 -16.984375 C 6.175781 -17.773438 7.675781 -18.171875 9.375 -18.171875 C 10.144531 -18.171875 10.972656 -18.015625 11.859375 -17.703125 C 12.742188 -17.398438 13.570312 -16.945312 14.34375 -16.34375 L 14.34375 -20.890625 C 14.34375 -21.503906 14.546875 -21.945312 14.953125 -22.21875 C 15.367188 -22.5 15.820312 -22.640625 16.3125 -22.640625 Z M 9.34375 -3.21875 C 10.507812 -3.21875 11.566406 -3.476562 12.515625 -4 C 13.460938 -4.53125 14.097656 -5.296875 14.421875 -6.296875 L 14.390625 -11.6875 C 13.992188 -12.644531 13.34375 -13.375 12.4375 -13.875 C 11.539062 -14.375 10.613281 -14.625 9.65625 -14.625 C 8.1875 -14.625 7.003906 -14.09375 6.109375 -13.03125 C 5.210938 -11.96875 4.765625 -10.644531 4.765625 -9.0625 C 4.765625 -7.363281 5.179688 -5.960938 6.015625 -4.859375 C 6.859375 -3.765625 7.96875 -3.21875 9.34375 -3.21875 Z M 9.34375 -3.21875 "/></g></g></g><g fill="#ffffff" fill-opacity="1"><g transform="translate(264.263451, 188.882918)"><g><path d="M 10.015625 -3.109375 C 10.691406 -3.109375 11.351562 -3.203125 12 -3.390625 C 12.65625 -3.578125 13.265625 -3.894531 13.828125 -4.34375 C 14.359375 -4.832031 14.878906 -5.054688 15.390625 -5.015625 C 15.910156 -4.984375 16.335938 -4.796875 16.671875 -4.453125 C 17.015625 -4.117188 17.1875 -3.703125 17.1875 -3.203125 C 17.1875 -2.703125 16.941406 -2.21875 16.453125 -1.75 C 15.628906 -0.957031 14.65625 -0.398438 13.53125 -0.078125 C 12.414062 0.234375 11.273438 0.375 10.109375 0.34375 C 8.296875 0.34375 6.691406 -0.0234375 5.296875 -0.765625 C 3.910156 -1.515625 2.828125 -2.550781 2.046875 -3.875 C 1.265625 -5.207031 0.875 -6.75 0.875 -8.5 C 0.875 -10.414062 1.242188 -12.097656 1.984375 -13.546875 C 2.734375 -14.992188 3.789062 -16.125 5.15625 -16.9375 C 6.519531 -17.757812 8.140625 -18.171875 10.015625 -18.171875 C 11.878906 -18.171875 13.460938 -17.789062 14.765625 -17.03125 C 16.078125 -16.269531 17.078125 -15.207031 17.765625 -13.84375 C 18.453125 -12.476562 18.796875 -10.882812 18.796875 -9.0625 C 18.796875 -8.476562 18.675781 -7.984375 18.4375 -7.578125 C 18.207031 -7.171875 17.59375 -6.96875 16.59375 -6.96875 L 4.9375 -6.96875 C 5.257812 -5.820312 5.875 -4.890625 6.78125 -4.171875 C 7.695312 -3.460938 8.773438 -3.109375 10.015625 -3.109375 Z M 10.046875 -14.703125 C 8.691406 -14.703125 7.554688 -14.273438 6.640625 -13.421875 C 5.734375 -12.566406 5.15625 -11.453125 4.90625 -10.078125 L 15.078125 -10.078125 C 14.960938 -11.453125 14.507812 -12.566406 13.71875 -13.421875 C 12.925781 -14.273438 11.703125 -14.703125 10.046875 -14.703125 Z M 10.046875 -14.703125 "/></g></g></g><g fill="#545454" fill-opacity="1"><g transform="translate(284.60098, 188.882918)"><g/></g></g><g fill="#ffffff" fill-opacity="1"><g transform="translate(103.576095, 215.739699)"><g><path d="M 3.171875 -13.171875 L 3.171875 0 L 1.453125 0 L 1.453125 -13.171875 Z M 3.171875 -13.171875 "/></g></g></g><g fill="#ffffff" fill-opacity="1"><g transform="translate(107.504954, 215.739699)"><g><path d="M 0.8125 -5.21875 C 0.8125 -6.28125 1.023438 -7.207031 1.453125 -8 C 1.878906 -8.800781 2.46875 -9.421875 3.21875 -9.859375 C 3.96875 -10.304688 4.8125 -10.53125 5.75 -10.53125 C 6.550781 -10.53125 7.296875 -10.34375 7.984375 -9.96875 C 8.679688 -9.601562 9.210938 -9.117188 9.578125 -8.515625 L 9.578125 -13.984375 L 11.328125 -13.984375 L 11.328125 0 L 9.578125 0 L 9.578125 -1.953125 C 9.242188 -1.328125 8.742188 -0.816406 8.078125 -0.421875 C 7.410156 -0.0234375 6.628906 0.171875 5.734375 0.171875 C 4.804688 0.171875 3.96875 -0.0507812 3.21875 -0.5 C 2.46875 -0.957031 1.878906 -1.597656 1.453125 -2.421875 C 1.023438 -3.242188 0.8125 -4.175781 0.8125 -5.21875 Z M 9.578125 -5.203125 C 9.578125 -5.984375 9.421875 -6.660156 9.109375 -7.234375 C 8.796875 -7.816406 8.367188 -8.257812 7.828125 -8.5625 C 7.296875 -8.875 6.707031 -9.03125 6.0625 -9.03125 C 5.425781 -9.03125 4.84375 -8.878906 4.3125 -8.578125 C 3.78125 -8.273438 3.359375 -7.832031 3.046875 -7.25 C 2.734375 -6.675781 2.578125 -6 2.578125 -5.21875 C 2.578125 -4.425781 2.734375 -3.734375 3.046875 -3.140625 C 3.359375 -2.554688 3.78125 -2.109375 4.3125 -1.796875 C 4.84375 -1.492188 5.425781 -1.34375 6.0625 -1.34375 C 6.707031 -1.34375 7.296875 -1.492188 7.828125 -1.796875 C 8.367188 -2.109375 8.796875 -2.554688 9.109375 -3.140625 C 9.421875 -3.734375 9.578125 -4.421875 9.578125 -5.203125 Z M 9.578125 -5.203125 "/></g></g></g><g fill="#ffffff" fill-opacity="1"><g transform="translate(119.556784, 215.739699)"><g><path d="M 10.90625 -5.578125 C 10.90625 -5.242188 10.890625 -4.894531 10.859375 -4.53125 L 2.578125 -4.53125 C 2.640625 -3.507812 2.988281 -2.710938 3.625 -2.140625 C 4.257812 -1.566406 5.03125 -1.28125 5.9375 -1.28125 C 6.675781 -1.28125 7.296875 -1.453125 7.796875 -1.796875 C 8.296875 -2.148438 8.644531 -2.613281 8.84375 -3.1875 L 10.703125 -3.1875 C 10.421875 -2.195312 9.863281 -1.390625 9.03125 -0.765625 C 8.207031 -0.140625 7.175781 0.171875 5.9375 0.171875 C 4.957031 0.171875 4.078125 -0.046875 3.296875 -0.484375 C 2.523438 -0.929688 1.914062 -1.5625 1.46875 -2.375 C 1.03125 -3.1875 0.8125 -4.128906 0.8125 -5.203125 C 0.8125 -6.273438 1.023438 -7.210938 1.453125 -8.015625 C 1.878906 -8.816406 2.476562 -9.4375 3.25 -9.875 C 4.03125 -10.3125 4.925781 -10.53125 5.9375 -10.53125 C 6.914062 -10.53125 7.785156 -10.316406 8.546875 -9.890625 C 9.304688 -9.460938 9.890625 -8.875 10.296875 -8.125 C 10.703125 -7.375 10.90625 -6.523438 10.90625 -5.578125 Z M 9.125 -5.9375 C 9.125 -6.59375 8.976562 -7.15625 8.6875 -7.625 C 8.40625 -8.101562 8.015625 -8.460938 7.515625 -8.703125 C 7.015625 -8.953125 6.460938 -9.078125 5.859375 -9.078125 C 4.992188 -9.078125 4.253906 -8.796875 3.640625 -8.234375 C 3.023438 -7.679688 2.675781 -6.914062 2.59375 -5.9375 Z M 9.125 -5.9375 "/></g></g></g><g fill="#ffffff" fill-opacity="1"><g transform="translate(130.550733, 215.739699)"><g><path d="M 0.8125 -5.21875 C 0.8125 -6.28125 1.023438 -7.207031 1.453125 -8 C 1.878906 -8.800781 2.46875 -9.421875 3.21875 -9.859375 C 3.96875 -10.304688 4.804688 -10.53125 5.734375 -10.53125 C 6.640625 -10.53125 7.425781 -10.332031 8.09375 -9.9375 C 8.757812 -9.550781 9.253906 -9.0625 9.578125 -8.46875 L 9.578125 -10.359375 L 11.328125 -10.359375 L 11.328125 0 L 9.578125 0 L 9.578125 -1.921875 C 9.242188 -1.316406 8.738281 -0.816406 8.0625 -0.421875 C 7.382812 -0.0234375 6.597656 0.171875 5.703125 0.171875 C 4.785156 0.171875 3.953125 -0.0507812 3.203125 -0.5 C 2.460938 -0.957031 1.878906 -1.597656 1.453125 -2.421875 C 1.023438 -3.242188 0.8125 -4.175781 0.8125 -5.21875 Z M 9.578125 -5.203125 C 9.578125 -5.984375 9.421875 -6.660156 9.109375 -7.234375 C 8.796875 -7.816406 8.367188 -8.257812 7.828125 -8.5625 C 7.296875 -8.875 6.707031 -9.03125 6.0625 -9.03125 C 5.425781 -9.03125 4.84375 -8.878906 4.3125 -8.578125 C 3.78125 -8.273438 3.359375 -7.832031 3.046875 -7.25 C 2.734375 -6.675781 2.578125 -6 2.578125 -5.21875 C 2.578125 -4.425781 2.734375 -3.734375 3.046875 -3.140625 C 3.359375 -2.554688 3.78125 -2.109375 4.3125 -1.796875 C 4.84375 -1.492188 5.425781 -1.34375 6.0625 -1.34375 C 6.707031 -1.34375 7.296875 -1.492188 7.828125 -1.796875 C 8.367188 -2.109375 8.796875 -2.554688 9.109375 -3.140625 C 9.421875 -3.734375 9.578125 -4.421875 9.578125 -5.203125 Z M 9.578125 -5.203125 "/></g></g></g><g fill="#ffffff" fill-opacity="1"><g transform="translate(142.602562, 215.739699)"><g/></g></g><g fill="#ffffff" fill-opacity="1"><g transform="translate(146.928131, 215.739699)"><g><path d="M 3.546875 -8.9375 L 3.546875 -2.84375 C 3.546875 -2.332031 3.65625 -1.972656 3.875 -1.765625 C 4.09375 -1.554688 4.460938 -1.453125 4.984375 -1.453125 L 6.265625 -1.453125 L 6.265625 0 L 4.703125 0 C 3.742188 0 3.023438 -0.21875 2.546875 -0.65625 C 2.066406 -1.101562 1.828125 -1.832031 1.828125 -2.84375 L 1.828125 -8.9375 L 0.484375 -8.9375 L 0.484375 -10.359375 L 1.828125 -10.359375 L 1.828125 -12.96875 L 3.546875 -12.96875 L 3.546875 -10.359375 L 6.265625 -10.359375 L 6.265625 -8.9375 Z M 3.546875 -8.9375 "/></g></g></g><g fill="#ffffff" fill-opacity="1"><g transform="translate(153.086082, 215.739699)"><g><path d="M 5.96875 0.171875 C 5 0.171875 4.117188 -0.046875 3.328125 -0.484375 C 2.546875 -0.929688 1.929688 -1.5625 1.484375 -2.375 C 1.035156 -3.1875 0.8125 -4.128906 0.8125 -5.203125 C 0.8125 -6.253906 1.039062 -7.1875 1.5 -8 C 1.957031 -8.8125 2.582031 -9.4375 3.375 -9.875 C 4.175781 -10.3125 5.066406 -10.53125 6.046875 -10.53125 C 7.035156 -10.53125 7.925781 -10.3125 8.71875 -9.875 C 9.507812 -9.4375 10.132812 -8.816406 10.59375 -8.015625 C 11.050781 -7.210938 11.28125 -6.273438 11.28125 -5.203125 C 11.28125 -4.128906 11.046875 -3.1875 10.578125 -2.375 C 10.109375 -1.5625 9.46875 -0.929688 8.65625 -0.484375 C 7.851562 -0.046875 6.957031 0.171875 5.96875 0.171875 Z M 5.96875 -1.34375 C 6.59375 -1.34375 7.175781 -1.488281 7.71875 -1.78125 C 8.257812 -2.070312 8.695312 -2.503906 9.03125 -3.078125 C 9.363281 -3.660156 9.53125 -4.367188 9.53125 -5.203125 C 9.53125 -6.035156 9.363281 -6.738281 9.03125 -7.3125 C 8.707031 -7.894531 8.28125 -8.328125 7.75 -8.609375 C 7.21875 -8.890625 6.644531 -9.03125 6.03125 -9.03125 C 5.394531 -9.03125 4.816406 -8.890625 4.296875 -8.609375 C 3.773438 -8.328125 3.359375 -7.894531 3.046875 -7.3125 C 2.734375 -6.738281 2.578125 -6.035156 2.578125 -5.203125 C 2.578125 -4.359375 2.726562 -3.644531 3.03125 -3.0625 C 3.34375 -2.476562 3.753906 -2.046875 4.265625 -1.765625 C 4.785156 -1.484375 5.351562 -1.34375 5.96875 -1.34375 Z M 5.96875 -1.34375 "/></g></g></g><g fill="#ffffff" fill-opacity="1"><g transform="translate(164.457846, 215.739699)"><g/></g></g><g fill="#ffffff" fill-opacity="1"><g transform="translate(168.783415, 215.739699)"><g><path d="M 3.171875 -11.78125 L 3.171875 -7.375 L 7.984375 -7.375 L 7.984375 -5.953125 L 3.171875 -5.953125 L 3.171875 -1.421875 L 8.546875 -1.421875 L 8.546875 0 L 1.453125 0 L 1.453125 -13.203125 L 8.546875 -13.203125 L 8.546875 -11.78125 Z M 3.171875 -11.78125 "/></g></g></g><g fill="#ffffff" fill-opacity="1"><g transform="translate(177.756075, 215.739699)"><g><path d="M 6.859375 0 L 4.40625 -3.859375 L 2.046875 0 L 0.25 0 L 3.59375 -5.140625 L 0.25 -10.359375 L 2.1875 -10.359375 L 4.65625 -6.515625 L 7 -10.359375 L 8.796875 -10.359375 L 5.46875 -5.234375 L 8.8125 0 Z M 6.859375 0 "/></g></g></g><g fill="#ffffff" fill-opacity="1"><g transform="translate(186.086446, 215.739699)"><g><path d="M 10.90625 -5.578125 C 10.90625 -5.242188 10.890625 -4.894531 10.859375 -4.53125 L 2.578125 -4.53125 C 2.640625 -3.507812 2.988281 -2.710938 3.625 -2.140625 C 4.257812 -1.566406 5.03125 -1.28125 5.9375 -1.28125 C 6.675781 -1.28125 7.296875 -1.453125 7.796875 -1.796875 C 8.296875 -2.148438 8.644531 -2.613281 8.84375 -3.1875 L 10.703125 -3.1875 C 10.421875 -2.195312 9.863281 -1.390625 9.03125 -0.765625 C 8.207031 -0.140625 7.175781 0.171875 5.9375 0.171875 C 4.957031 0.171875 4.078125 -0.046875 3.296875 -0.484375 C 2.523438 -0.929688 1.914062 -1.5625 1.46875 -2.375 C 1.03125 -3.1875 0.8125 -4.128906 0.8125 -5.203125 C 0.8125 -6.273438 1.023438 -7.210938 1.453125 -8.015625 C 1.878906 -8.816406 2.476562 -9.4375 3.25 -9.875 C 4.03125 -10.3125 4.925781 -10.53125 5.9375 -10.53125 C 6.914062 -10.53125 7.785156 -10.316406 8.546875 -9.890625 C 9.304688 -9.460938 9.890625 -8.875 10.296875 -8.125 C 10.703125 -7.375 10.90625 -6.523438 10.90625 -5.578125 Z M 9.125 -5.9375 C 9.125 -6.59375 8.976562 -7.15625 8.6875 -7.625 C 8.40625 -8.101562 8.015625 -8.460938 7.515625 -8.703125 C 7.015625 -8.953125 6.460938 -9.078125 5.859375 -9.078125 C 4.992188 -9.078125 4.253906 -8.796875 3.640625 -8.234375 C 3.023438 -7.679688 2.675781 -6.914062 2.59375 -5.9375 Z M 9.125 -5.9375 "/></g></g></g><g fill="#ffffff" fill-opacity="1"><g transform="translate(197.080395, 215.739699)"><g><path d="M 0.8125 -5.203125 C 0.8125 -6.273438 1.023438 -7.207031 1.453125 -8 C 1.878906 -8.800781 2.472656 -9.421875 3.234375 -9.859375 C 4.003906 -10.304688 4.878906 -10.53125 5.859375 -10.53125 C 7.128906 -10.53125 8.175781 -10.21875 9 -9.59375 C 9.832031 -8.976562 10.378906 -8.125 10.640625 -7.03125 L 8.796875 -7.03125 C 8.617188 -7.664062 8.273438 -8.164062 7.765625 -8.53125 C 7.253906 -8.894531 6.617188 -9.078125 5.859375 -9.078125 C 4.878906 -9.078125 4.085938 -8.738281 3.484375 -8.0625 C 2.878906 -7.382812 2.578125 -6.429688 2.578125 -5.203125 C 2.578125 -3.953125 2.878906 -2.984375 3.484375 -2.296875 C 4.085938 -1.617188 4.878906 -1.28125 5.859375 -1.28125 C 6.617188 -1.28125 7.25 -1.457031 7.75 -1.8125 C 8.257812 -2.164062 8.609375 -2.671875 8.796875 -3.328125 L 10.640625 -3.328125 C 10.367188 -2.265625 9.816406 -1.414062 8.984375 -0.78125 C 8.148438 -0.144531 7.109375 0.171875 5.859375 0.171875 C 4.878906 0.171875 4.003906 -0.046875 3.234375 -0.484375 C 2.472656 -0.929688 1.878906 -1.554688 1.453125 -2.359375 C 1.023438 -3.171875 0.8125 -4.117188 0.8125 -5.203125 Z M 0.8125 -5.203125 "/></g></g></g><g fill="#ffffff" fill-opacity="1"><g transform="translate(207.828766, 215.739699)"><g><path d="M 10.640625 -10.359375 L 10.640625 0 L 8.921875 0 L 8.921875 -1.53125 C 8.597656 -1 8.140625 -0.582031 7.546875 -0.28125 C 6.960938 0.0078125 6.316406 0.15625 5.609375 0.15625 C 4.804688 0.15625 4.082031 -0.0078125 3.4375 -0.34375 C 2.800781 -0.675781 2.296875 -1.175781 1.921875 -1.84375 C 1.546875 -2.519531 1.359375 -3.335938 1.359375 -4.296875 L 1.359375 -10.359375 L 3.0625 -10.359375 L 3.0625 -4.515625 C 3.0625 -3.492188 3.316406 -2.707031 3.828125 -2.15625 C 4.347656 -1.613281 5.054688 -1.34375 5.953125 -1.34375 C 6.867188 -1.34375 7.59375 -1.625 8.125 -2.1875 C 8.65625 -2.757812 8.921875 -3.585938 8.921875 -4.671875 L 8.921875 -10.359375 Z M 10.640625 -10.359375 "/></g></g></g><g fill="#ffffff" fill-opacity="1"><g transform="translate(219.20053, 215.739699)"><g><path d="M 3.546875 -8.9375 L 3.546875 -2.84375 C 3.546875 -2.332031 3.65625 -1.972656 3.875 -1.765625 C 4.09375 -1.554688 4.460938 -1.453125 4.984375 -1.453125 L 6.265625 -1.453125 L 6.265625 0 L 4.703125 0 C 3.742188 0 3.023438 -0.21875 2.546875 -0.65625 C 2.066406 -1.101562 1.828125 -1.832031 1.828125 -2.84375 L 1.828125 -8.9375 L 0.484375 -8.9375 L 0.484375 -10.359375 L 1.828125 -10.359375 L 1.828125 -12.96875 L 3.546875 -12.96875 L 3.546875 -10.359375 L 6.265625 -10.359375 L 6.265625 -8.9375 Z M 3.546875 -8.9375 "/></g></g></g><g fill="#ffffff" fill-opacity="1"><g transform="translate(225.358481, 215.739699)"><g><path d="M 2.34375 -12.046875 C 2.019531 -12.046875 1.742188 -12.15625 1.515625 -12.375 C 1.285156 -12.601562 1.171875 -12.882812 1.171875 -13.21875 C 1.171875 -13.539062 1.285156 -13.816406 1.515625 -14.046875 C 1.742188 -14.273438 2.019531 -14.390625 2.34375 -14.390625 C 2.65625 -14.390625 2.921875 -14.273438 3.140625 -14.046875 C 3.367188 -13.816406 3.484375 -13.539062 3.484375 -13.21875 C 3.484375 -12.882812 3.367188 -12.601562 3.140625 -12.375 C 2.921875 -12.15625 2.65625 -12.046875 2.34375 -12.046875 Z M 3.171875 -10.359375 L 3.171875 0 L 1.453125 0 L 1.453125 -10.359375 Z M 3.171875 -10.359375 "/></g></g></g><g fill="#ffffff" fill-opacity="1"><g transform="translate(229.28734, 215.739699)"><g><path d="M 5.96875 0.171875 C 5 0.171875 4.117188 -0.046875 3.328125 -0.484375 C 2.546875 -0.929688 1.929688 -1.5625 1.484375 -2.375 C 1.035156 -3.1875 0.8125 -4.128906 0.8125 -5.203125 C 0.8125 -6.253906 1.039062 -7.1875 1.5 -8 C 1.957031 -8.8125 2.582031 -9.4375 3.375 -9.875 C 4.175781 -10.3125 5.066406 -10.53125 6.046875 -10.53125 C 7.035156 -10.53125 7.925781 -10.3125 8.71875 -9.875 C 9.507812 -9.4375 10.132812 -8.816406 10.59375 -8.015625 C 11.050781 -7.210938 11.28125 -6.273438 11.28125 -5.203125 C 11.28125 -4.128906 11.046875 -3.1875 10.578125 -2.375 C 10.109375 -1.5625 9.46875 -0.929688 8.65625 -0.484375 C 7.851562 -0.046875 6.957031 0.171875 5.96875 0.171875 Z M 5.96875 -1.34375 C 6.59375 -1.34375 7.175781 -1.488281 7.71875 -1.78125 C 8.257812 -2.070312 8.695312 -2.503906 9.03125 -3.078125 C 9.363281 -3.660156 9.53125 -4.367188 9.53125 -5.203125 C 9.53125 -6.035156 9.363281 -6.738281 9.03125 -7.3125 C 8.707031 -7.894531 8.28125 -8.328125 7.75 -8.609375 C 7.21875 -8.890625 6.644531 -9.03125 6.03125 -9.03125 C 5.394531 -9.03125 4.816406 -8.890625 4.296875 -8.609375 C 3.773438 -8.328125 3.359375 -7.894531 3.046875 -7.3125 C 2.734375 -6.738281 2.578125 -6.035156 2.578125 -5.203125 C 2.578125 -4.359375 2.726562 -3.644531 3.03125 -3.0625 C 3.34375 -2.476562 3.753906 -2.046875 4.265625 -1.765625 C 4.785156 -1.484375 5.351562 -1.34375 5.96875 -1.34375 Z M 5.96875 -1.34375 "/></g></g></g><g fill="#ffffff" fill-opacity="1"><g transform="translate(240.659105, 215.739699)"><g><path d="M 6.5 -10.546875 C 7.757812 -10.546875 8.78125 -10.164062 9.5625 -9.40625 C 10.34375 -8.644531 10.734375 -7.546875 10.734375 -6.109375 L 10.734375 0 L 9.03125 0 L 9.03125 -5.859375 C 9.03125 -6.890625 8.769531 -7.679688 8.25 -8.234375 C 7.738281 -8.785156 7.035156 -9.0625 6.140625 -9.0625 C 5.234375 -9.0625 4.507812 -8.773438 3.96875 -8.203125 C 3.4375 -7.640625 3.171875 -6.816406 3.171875 -5.734375 L 3.171875 0 L 1.453125 0 L 1.453125 -10.359375 L 3.171875 -10.359375 L 3.171875 -8.890625 C 3.515625 -9.421875 3.976562 -9.828125 4.5625 -10.109375 C 5.144531 -10.398438 5.789062 -10.546875 6.5 -10.546875 Z M 6.5 -10.546875 "/></g></g></g></svg>