<svg xmlns="http://www.w3.org/2000/svg" xmlns:xlink="http://www.w3.org/1999/xlink" width="500" zoomAndPan="magnify" viewBox="0 0 375 374.999991" height="500" preserveAspectRatio="xMidYMid meet" version="1.0"><defs><g/><clipPath id="cbef45209e"><path d="M 294 157 L 306 157 L 306 169 L 294 169 Z M 294 157 " clip-rule="nonzero"/></clipPath><clipPath id="545af3c2c8"><path d="M 292.59375 159.523438 L 299.753906 152.90625 L 309.933594 163.921875 L 302.773438 170.539062 Z M 292.59375 159.523438 " clip-rule="nonzero"/></clipPath><clipPath id="4d1cdfda57"><path d="M 292.59375 159.523438 L 299.753906 152.90625 L 309.933594 163.921875 L 302.773438 170.539062 Z M 292.59375 159.523438 " clip-rule="nonzero"/></clipPath><clipPath id="9fa1e8be91"><path d="M 303 152 L 314 152 L 314 164 L 303 164 Z M 303 152 " clip-rule="nonzero"/></clipPath><clipPath id="bd89787d62"><path d="M 301.417969 154.316406 L 308.578125 147.695312 L 318.757812 158.710938 L 311.597656 165.332031 Z M 301.417969 154.316406 " clip-rule="nonzero"/></clipPath><clipPath id="c58be98a64"><path d="M 301.417969 154.316406 L 308.578125 147.695312 L 318.757812 158.710938 L 311.597656 165.332031 Z M 301.417969 154.316406 " clip-rule="nonzero"/></clipPath></defs><g clip-path="url(#cbef45209e)"><g clip-path="url(#545af3c2c8)"><g clip-path="url(#4d1cdfda57)"><path fill="#4f46e5" d="M 305.195312 158.292969 L 296.183594 157.890625 C 294.441406 157.8125 294.148438 161.203125 296.210938 161.261719 L 301.816406 161.414062 L 301.390625 167.054688 C 301.257812 168.773438 304.609375 168.953125 304.703125 167.207031 Z M 305.195312 158.292969 " fill-opacity="1" fill-rule="nonzero"/></g></g></g><g clip-path="url(#9fa1e8be91)"><g clip-path="url(#bd89787d62)"><g clip-path="url(#c58be98a64)"><path fill="#0cc0df" d="M 313.714844 153.121094 L 304.921875 152.730469 C 303.226562 152.652344 302.9375 155.960938 304.949219 156.015625 L 310.421875 156.164062 L 310.003906 161.667969 C 309.875 163.347656 313.144531 163.523438 313.238281 161.820312 Z M 313.714844 153.121094 " fill-opacity="1" fill-rule="nonzero"/></g></g></g><g fill="#ffffff" fill-opacity="1"><g transform="translate(66.591317, 182.230901)"><g><path d="M 6.296875 -19.671875 L 6.296875 -12.421875 L 17.953125 -12.421875 C 18.585938 -12.421875 19.0625 -12.234375 19.375 -11.859375 C 19.6875 -11.484375 19.84375 -11.078125 19.84375 -10.640625 C 19.84375 -10.203125 19.6875 -9.804688 19.375 -9.453125 C 19.0625 -9.097656 18.585938 -8.921875 17.953125 -8.921875 L 6.296875 -8.921875 L 6.296875 -1.96875 C 6.296875 -1.332031 6.078125 -0.84375 5.640625 -0.5 C 5.203125 -0.164062 4.726562 0 4.21875 0 C 3.6875 0 3.203125 -0.164062 2.765625 -0.5 C 2.328125 -0.84375 2.109375 -1.320312 2.109375 -1.9375 L 2.109375 -21.046875 C 2.109375 -21.628906 2.34375 -22.132812 2.8125 -22.5625 C 3.289062 -22.988281 3.847656 -23.203125 4.484375 -23.203125 L 18.609375 -23.203125 C 19.265625 -23.203125 19.75 -23.019531 20.0625 -22.65625 C 20.382812 -22.289062 20.546875 -21.878906 20.546875 -21.421875 C 20.546875 -20.984375 20.382812 -20.582031 20.0625 -20.21875 C 19.75 -19.851562 19.265625 -19.671875 18.609375 -19.671875 Z M 6.296875 -19.671875 "/></g></g></g><g fill="#ffffff" fill-opacity="1"><g transform="translate(87.672122, 182.230901)"><g><path d="M 5.46875 -21.265625 C 5.46875 -20.660156 5.238281 -20.207031 4.78125 -19.90625 C 4.332031 -19.601562 3.851562 -19.453125 3.34375 -19.453125 C 2.8125 -19.453125 2.328125 -19.601562 1.890625 -19.90625 C 1.453125 -20.207031 1.234375 -20.660156 1.234375 -21.265625 L 1.234375 -21.75 C 1.234375 -22.375 1.453125 -22.832031 1.890625 -23.125 C 2.328125 -23.414062 2.8125 -23.5625 3.34375 -23.5625 C 3.851562 -23.5625 4.332031 -23.414062 4.78125 -23.125 C 5.238281 -22.832031 5.46875 -22.375 5.46875 -21.75 Z M 1.28125 -16.75 C 1.28125 -17.332031 1.503906 -17.773438 1.953125 -18.078125 C 2.398438 -18.378906 2.863281 -18.53125 3.34375 -18.53125 C 3.851562 -18.53125 4.328125 -18.378906 4.765625 -18.078125 C 5.203125 -17.773438 5.421875 -17.347656 5.421875 -16.796875 L 5.421875 -1.78125 C 5.421875 -1.175781 5.203125 -0.726562 4.765625 -0.4375 C 4.328125 -0.144531 3.851562 0 3.34375 0 C 2.863281 0 2.398438 -0.144531 1.953125 -0.4375 C 1.503906 -0.726562 1.28125 -1.175781 1.28125 -1.78125 Z M 1.28125 -16.75 "/></g></g></g><g fill="#ffffff" fill-opacity="1"><g transform="translate(93.642745, 182.230901)"><g><path d="M 12.28125 -18.90625 C 13.976562 -18.90625 15.421875 -18.535156 16.609375 -17.796875 C 17.796875 -17.054688 18.703125 -16.03125 19.328125 -14.71875 C 19.960938 -13.40625 20.28125 -11.875 20.28125 -10.125 L 20.28125 -1.890625 C 20.28125 -1.335938 20.097656 -0.882812 19.734375 -0.53125 C 19.367188 -0.175781 18.859375 0 18.203125 0 C 17.597656 0 17.101562 -0.175781 16.71875 -0.53125 C 16.332031 -0.882812 16.140625 -1.335938 16.140625 -1.890625 L 16.140625 -10.203125 C 16.140625 -11.703125 15.78125 -12.921875 15.0625 -13.859375 C 14.34375 -14.796875 13.207031 -15.265625 11.65625 -15.265625 C 11.195312 -15.265625 10.644531 -15.132812 10 -14.875 C 9.351562 -14.625 8.71875 -14.242188 8.09375 -13.734375 C 7.476562 -13.222656 6.96875 -12.578125 6.5625 -11.796875 C 6.164062 -11.023438 5.96875 -10.101562 5.96875 -9.03125 L 5.96875 -1.859375 C 5.96875 -0.617188 5.300781 0 3.96875 0 C 3.332031 0 2.816406 -0.160156 2.421875 -0.484375 C 2.023438 -0.816406 1.828125 -1.273438 1.828125 -1.859375 L 1.828125 -16.6875 C 1.828125 -17.289062 2.035156 -17.75 2.453125 -18.0625 C 2.878906 -18.375 3.359375 -18.53125 3.890625 -18.53125 C 4.398438 -18.53125 4.875 -18.375 5.3125 -18.0625 C 5.75 -17.75 5.96875 -17.3125 5.96875 -16.75 L 5.96875 -16.5 C 7.019531 -17.46875 8.101562 -18.109375 9.21875 -18.421875 C 10.332031 -18.742188 11.351562 -18.90625 12.28125 -18.90625 Z M 12.28125 -18.90625 "/></g></g></g><g fill="#ffffff" fill-opacity="1"><g transform="translate(115.743035, 182.230901)"><g><path d="M 16.96875 -23.5625 C 17.476562 -23.5625 17.957031 -23.414062 18.40625 -23.125 C 18.851562 -22.832031 19.078125 -22.375 19.078125 -21.75 L 19.078125 -1.859375 C 19.078125 -0.617188 18.375 0 16.96875 0 C 15.707031 0 15.050781 -0.582031 15 -1.75 C 14.226562 -1.070312 13.351562 -0.554688 12.375 -0.203125 C 11.40625 0.148438 10.484375 0.328125 9.609375 0.328125 C 7.796875 0.328125 6.222656 -0.0820312 4.890625 -0.90625 C 3.566406 -1.738281 2.550781 -2.894531 1.84375 -4.375 C 1.144531 -5.851562 0.796875 -7.550781 0.796875 -9.46875 C 0.796875 -11.3125 1.171875 -12.9375 1.921875 -14.34375 C 2.679688 -15.757812 3.734375 -16.875 5.078125 -17.6875 C 6.429688 -18.5 7.992188 -18.90625 9.765625 -18.90625 C 10.566406 -18.90625 11.425781 -18.742188 12.34375 -18.421875 C 13.269531 -18.109375 14.132812 -17.640625 14.9375 -17.015625 L 14.9375 -21.75 C 14.9375 -22.375 15.144531 -22.832031 15.5625 -23.125 C 15.988281 -23.414062 16.457031 -23.5625 16.96875 -23.5625 Z M 9.71875 -3.34375 C 10.9375 -3.34375 12.035156 -3.613281 13.015625 -4.15625 C 14.003906 -4.707031 14.664062 -5.507812 15 -6.5625 L 14.96875 -12.171875 C 14.550781 -13.160156 13.875 -13.914062 12.9375 -14.4375 C 12.007812 -14.957031 11.046875 -15.21875 10.046875 -15.21875 C 8.523438 -15.21875 7.296875 -14.664062 6.359375 -13.5625 C 5.421875 -12.457031 4.953125 -11.082031 4.953125 -9.4375 C 4.953125 -7.664062 5.390625 -6.207031 6.265625 -5.0625 C 7.140625 -3.914062 8.289062 -3.34375 9.71875 -3.34375 Z M 9.71875 -3.34375 "/></g></g></g><g fill="#ffffff" fill-opacity="1"><g transform="translate(136.82384, 182.230901)"><g/></g></g><g fill="#ffffff" fill-opacity="1"><g transform="translate(145.37958, 182.230901)"><g><path d="M 3.828125 -22.1875 L 10.53125 -13.03125 L 17.234375 -22.078125 C 17.492188 -22.410156 17.785156 -22.679688 18.109375 -22.890625 C 18.441406 -23.097656 18.800781 -23.203125 19.1875 -23.203125 C 19.65625 -23.203125 20.070312 -23.039062 20.4375 -22.71875 C 20.800781 -22.40625 21.023438 -22.003906 21.109375 -21.515625 C 21.191406 -21.035156 21.039062 -20.53125 20.65625 -20 L 12.671875 -9.328125 L 12.671875 -2.1875 C 12.671875 -1.507812 12.441406 -0.972656 11.984375 -0.578125 C 11.523438 -0.191406 11.050781 0 10.5625 0 C 9.976562 0 9.476562 -0.191406 9.0625 -0.578125 C 8.65625 -0.972656 8.453125 -1.507812 8.453125 -2.1875 L 8.453125 -9.328125 L 0.296875 -20.109375 C -0.0664062 -20.617188 -0.207031 -21.109375 -0.125 -21.578125 C -0.0390625 -22.054688 0.191406 -22.445312 0.578125 -22.75 C 0.972656 -23.050781 1.410156 -23.203125 1.890625 -23.203125 C 2.691406 -23.203125 3.335938 -22.863281 3.828125 -22.1875 Z M 3.828125 -22.1875 "/></g></g></g><g fill="#ffffff" fill-opacity="1"><g transform="translate(166.460385, 182.230901)"><g><path d="M 10.421875 -18.90625 C 12.359375 -18.90625 14.054688 -18.5 15.515625 -17.6875 C 16.972656 -16.875 18.101562 -15.738281 18.90625 -14.28125 C 19.707031 -12.820312 20.109375 -11.117188 20.109375 -9.171875 C 20.078125 -7.285156 19.65625 -5.625 18.84375 -4.1875 C 18.03125 -2.757812 16.898438 -1.644531 15.453125 -0.84375 C 14.015625 -0.0390625 12.335938 0.359375 10.421875 0.359375 C 8.523438 0.359375 6.847656 -0.0390625 5.390625 -0.84375 C 3.929688 -1.644531 2.796875 -2.757812 1.984375 -4.1875 C 1.171875 -5.625 0.753906 -7.285156 0.734375 -9.171875 C 0.734375 -11.117188 1.140625 -12.820312 1.953125 -14.28125 C 2.765625 -15.738281 3.898438 -16.875 5.359375 -17.6875 C 6.816406 -18.5 8.503906 -18.90625 10.421875 -18.90625 Z M 10.421875 -3.28125 C 12.066406 -3.28125 13.378906 -3.828125 14.359375 -4.921875 C 15.347656 -6.015625 15.84375 -7.429688 15.84375 -9.171875 C 15.84375 -10.972656 15.347656 -12.4375 14.359375 -13.5625 C 13.378906 -14.695312 12.066406 -15.265625 10.421875 -15.265625 C 8.785156 -15.265625 7.46875 -14.695312 6.46875 -13.5625 C 5.476562 -12.4375 4.984375 -10.972656 4.984375 -9.171875 C 4.984375 -7.429688 5.476562 -6.015625 6.46875 -4.921875 C 7.46875 -3.828125 8.785156 -3.28125 10.421875 -3.28125 Z M 10.421875 -3.28125 "/></g></g></g><g fill="#ffffff" fill-opacity="1"><g transform="translate(186.667354, 182.230901)"><g><path d="M 17.890625 -18.53125 C 18.515625 -18.53125 19.019531 -18.335938 19.40625 -17.953125 C 19.800781 -17.566406 20 -17.082031 20 -16.5 L 20 -1.859375 C 20 -1.253906 19.769531 -0.789062 19.3125 -0.46875 C 18.863281 -0.15625 18.398438 0 17.921875 0 C 17.390625 0 16.910156 -0.160156 16.484375 -0.484375 C 16.054688 -0.816406 15.84375 -1.285156 15.84375 -1.890625 L 15.84375 -2.046875 C 14.84375 -1.066406 13.804688 -0.421875 12.734375 -0.109375 C 11.671875 0.203125 10.679688 0.359375 9.765625 0.359375 C 7.234375 0.359375 5.265625 -0.429688 3.859375 -2.015625 C 2.453125 -3.609375 1.75 -5.765625 1.75 -8.484375 L 1.75 -16.5 C 1.75 -17.0625 1.929688 -17.539062 2.296875 -17.9375 C 2.660156 -18.332031 3.171875 -18.53125 3.828125 -18.53125 C 4.453125 -18.53125 4.953125 -18.332031 5.328125 -17.9375 C 5.710938 -17.539062 5.90625 -17.0625 5.90625 -16.5 L 5.90625 -8.40625 C 5.90625 -6.832031 6.257812 -5.582031 6.96875 -4.65625 C 7.6875 -3.738281 8.820312 -3.28125 10.375 -3.28125 C 10.84375 -3.28125 11.382812 -3.40625 12 -3.65625 C 12.625 -3.914062 13.222656 -4.300781 13.796875 -4.8125 C 14.378906 -5.320312 14.863281 -5.96875 15.25 -6.75 C 15.644531 -7.539062 15.84375 -8.472656 15.84375 -9.546875 L 15.84375 -16.5 C 15.84375 -17.082031 16.007812 -17.566406 16.34375 -17.953125 C 16.6875 -18.335938 17.203125 -18.53125 17.890625 -18.53125 Z M 17.890625 -18.53125 "/></g></g></g><g fill="#ffffff" fill-opacity="1"><g transform="translate(208.658411, 182.230901)"><g><path d="M 9.828125 -18.53125 C 10.484375 -18.53125 11.003906 -18.390625 11.390625 -18.109375 C 11.785156 -17.835938 11.984375 -17.382812 11.984375 -16.75 C 11.984375 -16.164062 11.785156 -15.703125 11.390625 -15.359375 C 11.003906 -15.023438 10.484375 -14.859375 9.828125 -14.859375 C 8.304688 -14.859375 7.234375 -14.3125 6.609375 -13.21875 C 5.992188 -12.125 5.6875 -10.644531 5.6875 -8.78125 L 5.6875 -1.859375 C 5.6875 -1.328125 5.488281 -0.882812 5.09375 -0.53125 C 4.707031 -0.175781 4.234375 0 3.671875 0 C 3.046875 0 2.535156 -0.175781 2.140625 -0.53125 C 1.753906 -0.882812 1.5625 -1.328125 1.5625 -1.859375 L 1.5625 -16.6875 C 1.5625 -17.269531 1.785156 -17.722656 2.234375 -18.046875 C 2.679688 -18.367188 3.160156 -18.53125 3.671875 -18.53125 C 4.179688 -18.53125 4.644531 -18.375 5.0625 -18.0625 C 5.476562 -17.75 5.6875 -17.289062 5.6875 -16.6875 L 5.6875 -16.46875 C 6.21875 -17.164062 6.832031 -17.679688 7.53125 -18.015625 C 8.238281 -18.359375 9.003906 -18.53125 9.828125 -18.53125 Z M 9.828125 -18.53125 "/></g></g></g><g fill="#ffffff" fill-opacity="1"><g transform="translate(219.544397, 182.230901)"><g/></g></g><g fill="#ffffff" fill-opacity="1"><g transform="translate(228.100136, 182.230901)"><g><path d="M 0.25 -5.5 C 0.0820312 -6.207031 0.253906 -6.765625 0.765625 -7.171875 C 1.273438 -7.585938 1.847656 -7.796875 2.484375 -7.796875 C 2.960938 -7.796875 3.390625 -7.679688 3.765625 -7.453125 C 4.140625 -7.222656 4.378906 -6.863281 4.484375 -6.375 C 4.742188 -5.59375 5.242188 -4.988281 5.984375 -4.5625 C 6.734375 -4.144531 7.566406 -3.851562 8.484375 -3.6875 C 9.410156 -3.53125 10.273438 -3.453125 11.078125 -3.453125 C 11.703125 -3.453125 12.390625 -3.5 13.140625 -3.59375 C 13.898438 -3.695312 14.617188 -3.875 15.296875 -4.125 C 15.972656 -4.382812 16.53125 -4.742188 16.96875 -5.203125 C 17.40625 -5.671875 17.625 -6.269531 17.625 -7 C 17.625 -7.769531 17.300781 -8.335938 16.65625 -8.703125 C 16.019531 -9.066406 15.203125 -9.328125 14.203125 -9.484375 C 13.210938 -9.640625 12.171875 -9.753906 11.078125 -9.828125 C 9.835938 -9.929688 8.59375 -10.078125 7.34375 -10.265625 C 6.09375 -10.460938 4.953125 -10.78125 3.921875 -11.21875 C 2.890625 -11.65625 2.054688 -12.289062 1.421875 -13.125 C 0.785156 -13.96875 0.46875 -15.082031 0.46875 -16.46875 C 0.46875 -17.695312 0.785156 -18.757812 1.421875 -19.65625 C 2.054688 -20.5625 2.878906 -21.300781 3.890625 -21.875 C 4.910156 -22.445312 6.015625 -22.867188 7.203125 -23.140625 C 8.398438 -23.421875 9.566406 -23.5625 10.703125 -23.5625 C 11.972656 -23.5625 13.296875 -23.414062 14.671875 -23.125 C 16.054688 -22.832031 17.328125 -22.316406 18.484375 -21.578125 C 19.640625 -20.835938 20.492188 -19.800781 21.046875 -18.46875 C 21.242188 -17.789062 21.101562 -17.222656 20.625 -16.765625 C 20.15625 -16.316406 19.601562 -16.09375 18.96875 -16.09375 C 18.582031 -16.09375 18.210938 -16.179688 17.859375 -16.359375 C 17.515625 -16.546875 17.269531 -16.800781 17.125 -17.125 C 16.832031 -17.875 16.320312 -18.429688 15.59375 -18.796875 C 14.863281 -19.160156 14.0625 -19.394531 13.1875 -19.5 C 12.3125 -19.613281 11.5 -19.671875 10.75 -19.671875 C 10.257812 -19.671875 9.679688 -19.617188 9.015625 -19.515625 C 8.347656 -19.421875 7.695312 -19.25 7.0625 -19 C 6.4375 -18.757812 5.910156 -18.425781 5.484375 -18 C 5.054688 -17.582031 4.84375 -17.054688 4.84375 -16.421875 C 4.84375 -15.648438 5.144531 -15.066406 5.75 -14.671875 C 6.363281 -14.285156 7.171875 -14.019531 8.171875 -13.875 C 9.179688 -13.726562 10.28125 -13.609375 11.46875 -13.515625 C 12.726562 -13.390625 13.984375 -13.25 15.234375 -13.09375 C 16.492188 -12.9375 17.628906 -12.65625 18.640625 -12.25 C 19.660156 -11.851562 20.472656 -11.25 21.078125 -10.4375 C 21.691406 -9.625 22 -8.488281 22 -7.03125 C 22 -5.570312 21.648438 -4.367188 20.953125 -3.421875 C 20.265625 -2.472656 19.363281 -1.71875 18.25 -1.15625 C 17.132812 -0.601562 15.941406 -0.210938 14.671875 0.015625 C 13.410156 0.242188 12.210938 0.359375 11.078125 0.359375 C 10.128906 0.359375 9.09375 0.265625 7.96875 0.078125 C 6.851562 -0.0976562 5.765625 -0.410156 4.703125 -0.859375 C 3.648438 -1.304688 2.722656 -1.90625 1.921875 -2.65625 C 1.128906 -3.40625 0.570312 -4.351562 0.25 -5.5 Z M 0.25 -5.5 "/></g></g></g><g fill="#ffffff" fill-opacity="1"><g transform="translate(250.236831, 182.230901)"><g><path d="M 5.46875 -21.265625 C 5.46875 -20.660156 5.238281 -20.207031 4.78125 -19.90625 C 4.332031 -19.601562 3.851562 -19.453125 3.34375 -19.453125 C 2.8125 -19.453125 2.328125 -19.601562 1.890625 -19.90625 C 1.453125 -20.207031 1.234375 -20.660156 1.234375 -21.265625 L 1.234375 -21.75 C 1.234375 -22.375 1.453125 -22.832031 1.890625 -23.125 C 2.328125 -23.414062 2.8125 -23.5625 3.34375 -23.5625 C 3.851562 -23.5625 4.332031 -23.414062 4.78125 -23.125 C 5.238281 -22.832031 5.46875 -22.375 5.46875 -21.75 Z M 1.28125 -16.75 C 1.28125 -17.332031 1.503906 -17.773438 1.953125 -18.078125 C 2.398438 -18.378906 2.863281 -18.53125 3.34375 -18.53125 C 3.851562 -18.53125 4.328125 -18.378906 4.765625 -18.078125 C 5.203125 -17.773438 5.421875 -17.347656 5.421875 -16.796875 L 5.421875 -1.78125 C 5.421875 -1.175781 5.203125 -0.726562 4.765625 -0.4375 C 4.328125 -0.144531 3.851562 0 3.34375 0 C 2.863281 0 2.398438 -0.144531 1.953125 -0.4375 C 1.503906 -0.726562 1.28125 -1.175781 1.28125 -1.78125 Z M 1.28125 -16.75 "/></g></g></g><g fill="#ffffff" fill-opacity="1"><g transform="translate(256.207453, 182.230901)"><g><path d="M 16.96875 -23.5625 C 17.476562 -23.5625 17.957031 -23.414062 18.40625 -23.125 C 18.851562 -22.832031 19.078125 -22.375 19.078125 -21.75 L 19.078125 -1.859375 C 19.078125 -0.617188 18.375 0 16.96875 0 C 15.707031 0 15.050781 -0.582031 15 -1.75 C 14.226562 -1.070312 13.351562 -0.554688 12.375 -0.203125 C 11.40625 0.148438 10.484375 0.328125 9.609375 0.328125 C 7.796875 0.328125 6.222656 -0.0820312 4.890625 -0.90625 C 3.566406 -1.738281 2.550781 -2.894531 1.84375 -4.375 C 1.144531 -5.851562 0.796875 -7.550781 0.796875 -9.46875 C 0.796875 -11.3125 1.171875 -12.9375 1.921875 -14.34375 C 2.679688 -15.757812 3.734375 -16.875 5.078125 -17.6875 C 6.429688 -18.5 7.992188 -18.90625 9.765625 -18.90625 C 10.566406 -18.90625 11.425781 -18.742188 12.34375 -18.421875 C 13.269531 -18.109375 14.132812 -17.640625 14.9375 -17.015625 L 14.9375 -21.75 C 14.9375 -22.375 15.144531 -22.832031 15.5625 -23.125 C 15.988281 -23.414062 16.457031 -23.5625 16.96875 -23.5625 Z M 9.71875 -3.34375 C 10.9375 -3.34375 12.035156 -3.613281 13.015625 -4.15625 C 14.003906 -4.707031 14.664062 -5.507812 15 -6.5625 L 14.96875 -12.171875 C 14.550781 -13.160156 13.875 -13.914062 12.9375 -14.4375 C 12.007812 -14.957031 11.046875 -15.21875 10.046875 -15.21875 C 8.523438 -15.21875 7.296875 -14.664062 6.359375 -13.5625 C 5.421875 -12.457031 4.953125 -11.082031 4.953125 -9.4375 C 4.953125 -7.664062 5.390625 -6.207031 6.265625 -5.0625 C 7.140625 -3.914062 8.289062 -3.34375 9.71875 -3.34375 Z M 9.71875 -3.34375 "/></g></g></g><g fill="#ffffff" fill-opacity="1"><g transform="translate(277.288247, 182.230901)"><g><path d="M 10.421875 -3.234375 C 11.117188 -3.234375 11.804688 -3.332031 12.484375 -3.53125 C 13.171875 -3.726562 13.804688 -4.054688 14.390625 -4.515625 C 14.941406 -5.023438 15.484375 -5.257812 16.015625 -5.21875 C 16.554688 -5.1875 17.003906 -4.992188 17.359375 -4.640625 C 17.710938 -4.285156 17.890625 -3.847656 17.890625 -3.328125 C 17.890625 -2.804688 17.632812 -2.304688 17.125 -1.828125 C 16.269531 -0.992188 15.257812 -0.410156 14.09375 -0.078125 C 12.925781 0.242188 11.738281 0.390625 10.53125 0.359375 C 8.632812 0.359375 6.960938 -0.0234375 5.515625 -0.796875 C 4.066406 -1.578125 2.9375 -2.660156 2.125 -4.046875 C 1.3125 -5.429688 0.90625 -7.03125 0.90625 -8.84375 C 0.90625 -10.84375 1.289062 -12.59375 2.0625 -14.09375 C 2.84375 -15.601562 3.941406 -16.78125 5.359375 -17.625 C 6.785156 -18.476562 8.472656 -18.90625 10.421875 -18.90625 C 12.359375 -18.90625 14.003906 -18.507812 15.359375 -17.71875 C 16.722656 -16.925781 17.765625 -15.820312 18.484375 -14.40625 C 19.203125 -12.988281 19.5625 -11.332031 19.5625 -9.4375 C 19.5625 -8.820312 19.4375 -8.300781 19.1875 -7.875 C 18.945312 -7.457031 18.304688 -7.25 17.265625 -7.25 L 5.140625 -7.25 C 5.472656 -6.0625 6.113281 -5.09375 7.0625 -4.34375 C 8.007812 -3.601562 9.128906 -3.234375 10.421875 -3.234375 Z M 10.453125 -15.296875 C 9.046875 -15.296875 7.867188 -14.851562 6.921875 -13.96875 C 5.972656 -13.082031 5.363281 -11.921875 5.09375 -10.484375 L 15.703125 -10.484375 C 15.578125 -11.921875 15.097656 -13.082031 14.265625 -13.96875 C 13.441406 -14.851562 12.171875 -15.296875 10.453125 -15.296875 Z M 10.453125 -15.296875 "/></g></g></g><g fill="#ffffff" fill-opacity="1"><g transform="translate(298.446771, 182.230901)"><g/></g></g><g fill="#ffffff" fill-opacity="1"><g transform="translate(82.883601, 210.348692)"><g><path d="M 9.375 -13.859375 L 9.375 -12.390625 L 3.34375 -12.390625 L 3.34375 -7.71875 L 8.234375 -7.71875 L 8.234375 -6.25 L 3.34375 -6.25 L 3.34375 0 L 1.53125 0 L 1.53125 -13.859375 Z M 9.375 -13.859375 "/></g></g></g><g fill="#ffffff" fill-opacity="1"><g transform="translate(92.150317, 210.348692)"><g><path d="M 3.34375 -9.125 C 3.65625 -9.75 4.109375 -10.234375 4.703125 -10.578125 C 5.296875 -10.921875 6.015625 -11.09375 6.859375 -11.09375 L 6.859375 -9.234375 L 6.390625 -9.234375 C 4.359375 -9.234375 3.34375 -8.128906 3.34375 -5.921875 L 3.34375 0 L 1.53125 0 L 1.53125 -10.90625 L 3.34375 -10.90625 Z M 3.34375 -9.125 "/></g></g></g><g fill="#ffffff" fill-opacity="1"><g transform="translate(98.811865, 210.348692)"><g><path d="M 6.28125 0.171875 C 5.257812 0.171875 4.332031 -0.0546875 3.5 -0.515625 C 2.675781 -0.984375 2.03125 -1.644531 1.5625 -2.5 C 1.09375 -3.351562 0.859375 -4.34375 0.859375 -5.46875 C 0.859375 -6.582031 1.097656 -7.566406 1.578125 -8.421875 C 2.066406 -9.273438 2.726562 -9.929688 3.5625 -10.390625 C 4.394531 -10.847656 5.328125 -11.078125 6.359375 -11.078125 C 7.398438 -11.078125 8.335938 -10.847656 9.171875 -10.390625 C 10.003906 -9.929688 10.660156 -9.273438 11.140625 -8.421875 C 11.628906 -7.578125 11.875 -6.59375 11.875 -5.46875 C 11.875 -4.34375 11.625 -3.351562 11.125 -2.5 C 10.632812 -1.644531 9.960938 -0.984375 9.109375 -0.515625 C 8.265625 -0.0546875 7.320312 0.171875 6.28125 0.171875 Z M 6.28125 -1.40625 C 6.9375 -1.40625 7.546875 -1.554688 8.109375 -1.859375 C 8.679688 -2.171875 9.144531 -2.628906 9.5 -3.234375 C 9.851562 -3.847656 10.03125 -4.59375 10.03125 -5.46875 C 10.03125 -6.34375 9.851562 -7.082031 9.5 -7.6875 C 9.15625 -8.300781 8.703125 -8.753906 8.140625 -9.046875 C 7.585938 -9.347656 6.988281 -9.5 6.34375 -9.5 C 5.675781 -9.5 5.066406 -9.347656 4.515625 -9.046875 C 3.972656 -8.753906 3.535156 -8.300781 3.203125 -7.6875 C 2.867188 -7.082031 2.703125 -6.34375 2.703125 -5.46875 C 2.703125 -4.582031 2.863281 -3.832031 3.1875 -3.21875 C 3.519531 -2.613281 3.957031 -2.160156 4.5 -1.859375 C 5.039062 -1.554688 5.632812 -1.40625 6.28125 -1.40625 Z M 6.28125 -1.40625 "/></g></g></g><g fill="#ffffff" fill-opacity="1"><g transform="translate(110.783185, 210.348692)"><g><path d="M 14.640625 -11.09375 C 15.484375 -11.09375 16.238281 -10.914062 16.90625 -10.5625 C 17.570312 -10.21875 18.097656 -9.691406 18.484375 -8.984375 C 18.867188 -8.285156 19.0625 -7.429688 19.0625 -6.421875 L 19.0625 0 L 17.265625 0 L 17.265625 -6.171875 C 17.265625 -7.253906 16.992188 -8.082031 16.453125 -8.65625 C 15.921875 -9.238281 15.195312 -9.53125 14.28125 -9.53125 C 13.34375 -9.53125 12.59375 -9.226562 12.03125 -8.625 C 11.476562 -8.019531 11.203125 -7.144531 11.203125 -6 L 11.203125 0 L 9.40625 0 L 9.40625 -6.171875 C 9.40625 -7.253906 9.132812 -8.082031 8.59375 -8.65625 C 8.0625 -9.238281 7.335938 -9.53125 6.421875 -9.53125 C 5.484375 -9.53125 4.734375 -9.226562 4.171875 -8.625 C 3.617188 -8.019531 3.34375 -7.144531 3.34375 -6 L 3.34375 0 L 1.53125 0 L 1.53125 -10.90625 L 3.34375 -10.90625 L 3.34375 -9.328125 C 3.695312 -9.898438 4.175781 -10.335938 4.78125 -10.640625 C 5.382812 -10.941406 6.050781 -11.09375 6.78125 -11.09375 C 7.695312 -11.09375 8.503906 -10.882812 9.203125 -10.46875 C 9.910156 -10.0625 10.4375 -9.460938 10.78125 -8.671875 C 11.082031 -9.441406 11.582031 -10.035156 12.28125 -10.453125 C 12.988281 -10.878906 13.773438 -11.09375 14.640625 -11.09375 Z M 14.640625 -11.09375 "/></g></g></g><g fill="#ffffff" fill-opacity="1"><g transform="translate(130.510349, 210.348692)"><g/></g></g><g fill="#ffffff" fill-opacity="1"><g transform="translate(135.063896, 210.348692)"><g><path d="M 3.34375 -13.859375 L 3.34375 0 L 1.53125 0 L 1.53125 -13.859375 Z M 3.34375 -13.859375 "/></g></g></g><g fill="#ffffff" fill-opacity="1"><g transform="translate(139.199825, 210.348692)"><g><path d="M 0.859375 -5.484375 C 0.859375 -6.597656 1.082031 -7.578125 1.53125 -8.421875 C 1.976562 -9.265625 2.597656 -9.914062 3.390625 -10.375 C 4.179688 -10.84375 5.066406 -11.078125 6.046875 -11.078125 C 6.890625 -11.078125 7.675781 -10.878906 8.40625 -10.484375 C 9.132812 -10.097656 9.691406 -9.585938 10.078125 -8.953125 L 10.078125 -14.71875 L 11.921875 -14.71875 L 11.921875 0 L 10.078125 0 L 10.078125 -2.046875 C 9.722656 -1.398438 9.191406 -0.867188 8.484375 -0.453125 C 7.785156 -0.0351562 6.96875 0.171875 6.03125 0.171875 C 5.0625 0.171875 4.179688 -0.0625 3.390625 -0.53125 C 2.597656 -1.007812 1.976562 -1.679688 1.53125 -2.546875 C 1.082031 -3.410156 0.859375 -4.390625 0.859375 -5.484375 Z M 10.078125 -5.46875 C 10.078125 -6.289062 9.910156 -7.003906 9.578125 -7.609375 C 9.253906 -8.222656 8.8125 -8.691406 8.25 -9.015625 C 7.6875 -9.335938 7.066406 -9.5 6.390625 -9.5 C 5.710938 -9.5 5.09375 -9.335938 4.53125 -9.015625 C 3.976562 -8.703125 3.535156 -8.238281 3.203125 -7.625 C 2.867188 -7.019531 2.703125 -6.304688 2.703125 -5.484375 C 2.703125 -4.648438 2.867188 -3.925781 3.203125 -3.3125 C 3.535156 -2.695312 3.976562 -2.222656 4.53125 -1.890625 C 5.09375 -1.566406 5.710938 -1.40625 6.390625 -1.40625 C 7.066406 -1.40625 7.6875 -1.566406 8.25 -1.890625 C 8.8125 -2.222656 9.253906 -2.695312 9.578125 -3.3125 C 9.910156 -3.925781 10.078125 -4.644531 10.078125 -5.46875 Z M 10.078125 -5.46875 "/></g></g></g><g fill="#ffffff" fill-opacity="1"><g transform="translate(151.887065, 210.348692)"><g><path d="M 11.484375 -5.875 C 11.484375 -5.519531 11.460938 -5.15625 11.421875 -4.78125 L 2.703125 -4.78125 C 2.765625 -3.695312 3.128906 -2.851562 3.796875 -2.25 C 4.472656 -1.65625 5.289062 -1.359375 6.25 -1.359375 C 7.03125 -1.359375 7.679688 -1.539062 8.203125 -1.90625 C 8.722656 -2.269531 9.09375 -2.753906 9.3125 -3.359375 L 11.265625 -3.359375 C 10.972656 -2.316406 10.382812 -1.46875 9.5 -0.8125 C 8.625 -0.15625 7.539062 0.171875 6.25 0.171875 C 5.207031 0.171875 4.28125 -0.0546875 3.46875 -0.515625 C 2.65625 -0.984375 2.015625 -1.644531 1.546875 -2.5 C 1.085938 -3.351562 0.859375 -4.34375 0.859375 -5.46875 C 0.859375 -6.59375 1.082031 -7.578125 1.53125 -8.421875 C 1.976562 -9.273438 2.609375 -9.929688 3.421875 -10.390625 C 4.242188 -10.847656 5.1875 -11.078125 6.25 -11.078125 C 7.28125 -11.078125 8.191406 -10.847656 8.984375 -10.390625 C 9.785156 -9.941406 10.398438 -9.320312 10.828125 -8.53125 C 11.265625 -7.75 11.484375 -6.863281 11.484375 -5.875 Z M 9.609375 -6.25 C 9.609375 -6.9375 9.453125 -7.523438 9.140625 -8.015625 C 8.835938 -8.515625 8.425781 -8.894531 7.90625 -9.15625 C 7.382812 -9.414062 6.804688 -9.546875 6.171875 -9.546875 C 5.253906 -9.546875 4.472656 -9.253906 3.828125 -8.671875 C 3.179688 -8.085938 2.8125 -7.28125 2.71875 -6.25 Z M 9.609375 -6.25 "/></g></g></g><g fill="#ffffff" fill-opacity="1"><g transform="translate(163.460646, 210.348692)"><g><path d="M 0.859375 -5.484375 C 0.859375 -6.597656 1.082031 -7.578125 1.53125 -8.421875 C 1.976562 -9.265625 2.597656 -9.914062 3.390625 -10.375 C 4.179688 -10.84375 5.0625 -11.078125 6.03125 -11.078125 C 6.976562 -11.078125 7.800781 -10.867188 8.5 -10.453125 C 9.207031 -10.046875 9.734375 -9.53125 10.078125 -8.90625 L 10.078125 -10.90625 L 11.921875 -10.90625 L 11.921875 0 L 10.078125 0 L 10.078125 -2.03125 C 9.722656 -1.394531 9.191406 -0.867188 8.484375 -0.453125 C 7.773438 -0.0351562 6.945312 0.171875 6 0.171875 C 5.039062 0.171875 4.164062 -0.0625 3.375 -0.53125 C 2.59375 -1.007812 1.976562 -1.679688 1.53125 -2.546875 C 1.082031 -3.410156 0.859375 -4.390625 0.859375 -5.484375 Z M 10.078125 -5.46875 C 10.078125 -6.289062 9.910156 -7.003906 9.578125 -7.609375 C 9.253906 -8.222656 8.8125 -8.691406 8.25 -9.015625 C 7.6875 -9.335938 7.066406 -9.5 6.390625 -9.5 C 5.710938 -9.5 5.09375 -9.335938 4.53125 -9.015625 C 3.976562 -8.703125 3.535156 -8.238281 3.203125 -7.625 C 2.867188 -7.019531 2.703125 -6.304688 2.703125 -5.484375 C 2.703125 -4.648438 2.867188 -3.925781 3.203125 -3.3125 C 3.535156 -2.695312 3.976562 -2.222656 4.53125 -1.890625 C 5.09375 -1.566406 5.710938 -1.40625 6.390625 -1.40625 C 7.066406 -1.40625 7.6875 -1.566406 8.25 -1.890625 C 8.8125 -2.222656 9.253906 -2.695312 9.578125 -3.3125 C 9.910156 -3.925781 10.078125 -4.644531 10.078125 -5.46875 Z M 10.078125 -5.46875 "/></g></g></g><g fill="#ffffff" fill-opacity="1"><g transform="translate(176.147885, 210.348692)"><g/></g></g><g fill="#ffffff" fill-opacity="1"><g transform="translate(180.701432, 210.348692)"><g><path d="M 3.734375 -9.40625 L 3.734375 -2.984375 C 3.734375 -2.453125 3.847656 -2.078125 4.078125 -1.859375 C 4.304688 -1.640625 4.695312 -1.53125 5.25 -1.53125 L 6.578125 -1.53125 L 6.578125 0 L 4.953125 0 C 3.941406 0 3.179688 -0.226562 2.671875 -0.6875 C 2.171875 -1.15625 1.921875 -1.921875 1.921875 -2.984375 L 1.921875 -9.40625 L 0.515625 -9.40625 L 0.515625 -10.90625 L 1.921875 -10.90625 L 1.921875 -13.640625 L 3.734375 -13.640625 L 3.734375 -10.90625 L 6.578125 -10.90625 L 6.578125 -9.40625 Z M 3.734375 -9.40625 "/></g></g></g><g fill="#ffffff" fill-opacity="1"><g transform="translate(187.183995, 210.348692)"><g><path d="M 6.28125 0.171875 C 5.257812 0.171875 4.332031 -0.0546875 3.5 -0.515625 C 2.675781 -0.984375 2.03125 -1.644531 1.5625 -2.5 C 1.09375 -3.351562 0.859375 -4.34375 0.859375 -5.46875 C 0.859375 -6.582031 1.097656 -7.566406 1.578125 -8.421875 C 2.066406 -9.273438 2.726562 -9.929688 3.5625 -10.390625 C 4.394531 -10.847656 5.328125 -11.078125 6.359375 -11.078125 C 7.398438 -11.078125 8.335938 -10.847656 9.171875 -10.390625 C 10.003906 -9.929688 10.660156 -9.273438 11.140625 -8.421875 C 11.628906 -7.578125 11.875 -6.59375 11.875 -5.46875 C 11.875 -4.34375 11.625 -3.351562 11.125 -2.5 C 10.632812 -1.644531 9.960938 -0.984375 9.109375 -0.515625 C 8.265625 -0.0546875 7.320312 0.171875 6.28125 0.171875 Z M 6.28125 -1.40625 C 6.9375 -1.40625 7.546875 -1.554688 8.109375 -1.859375 C 8.679688 -2.171875 9.144531 -2.628906 9.5 -3.234375 C 9.851562 -3.847656 10.03125 -4.59375 10.03125 -5.46875 C 10.03125 -6.34375 9.851562 -7.082031 9.5 -7.6875 C 9.15625 -8.300781 8.703125 -8.753906 8.140625 -9.046875 C 7.585938 -9.347656 6.988281 -9.5 6.34375 -9.5 C 5.675781 -9.5 5.066406 -9.347656 4.515625 -9.046875 C 3.972656 -8.753906 3.535156 -8.300781 3.203125 -7.6875 C 2.867188 -7.082031 2.703125 -6.34375 2.703125 -5.46875 C 2.703125 -4.582031 2.863281 -3.832031 3.1875 -3.21875 C 3.519531 -2.613281 3.957031 -2.160156 4.5 -1.859375 C 5.039062 -1.554688 5.632812 -1.40625 6.28125 -1.40625 Z M 6.28125 -1.40625 "/></g></g></g><g fill="#ffffff" fill-opacity="1"><g transform="translate(199.155315, 210.348692)"><g/></g></g><g fill="#ffffff" fill-opacity="1"><g transform="translate(203.708862, 210.348692)"><g><path d="M 3.34375 -12.390625 L 3.34375 -7.75 L 8.390625 -7.75 L 8.390625 -6.265625 L 3.34375 -6.265625 L 3.34375 -1.484375 L 8.984375 -1.484375 L 8.984375 0 L 1.53125 0 L 1.53125 -13.890625 L 8.984375 -13.890625 L 8.984375 -12.390625 Z M 3.34375 -12.390625 "/></g></g></g><g fill="#ffffff" fill-opacity="1"><g transform="translate(213.154563, 210.348692)"><g><path d="M 7.21875 0 L 4.640625 -4.0625 L 2.140625 0 L 0.265625 0 L 3.78125 -5.40625 L 0.265625 -10.90625 L 2.3125 -10.90625 L 4.890625 -6.859375 L 7.359375 -10.90625 L 9.25 -10.90625 L 5.75 -5.515625 L 9.265625 0 Z M 7.21875 0 "/></g></g></g><g fill="#ffffff" fill-opacity="1"><g transform="translate(221.924112, 210.348692)"><g><path d="M 11.484375 -5.875 C 11.484375 -5.519531 11.460938 -5.15625 11.421875 -4.78125 L 2.703125 -4.78125 C 2.765625 -3.695312 3.128906 -2.851562 3.796875 -2.25 C 4.472656 -1.65625 5.289062 -1.359375 6.25 -1.359375 C 7.03125 -1.359375 7.679688 -1.539062 8.203125 -1.90625 C 8.722656 -2.269531 9.09375 -2.753906 9.3125 -3.359375 L 11.265625 -3.359375 C 10.972656 -2.316406 10.382812 -1.46875 9.5 -0.8125 C 8.625 -0.15625 7.539062 0.171875 6.25 0.171875 C 5.207031 0.171875 4.28125 -0.0546875 3.46875 -0.515625 C 2.65625 -0.984375 2.015625 -1.644531 1.546875 -2.5 C 1.085938 -3.351562 0.859375 -4.34375 0.859375 -5.46875 C 0.859375 -6.59375 1.082031 -7.578125 1.53125 -8.421875 C 1.976562 -9.273438 2.609375 -9.929688 3.421875 -10.390625 C 4.242188 -10.847656 5.1875 -11.078125 6.25 -11.078125 C 7.28125 -11.078125 8.191406 -10.847656 8.984375 -10.390625 C 9.785156 -9.941406 10.398438 -9.320312 10.828125 -8.53125 C 11.265625 -7.75 11.484375 -6.863281 11.484375 -5.875 Z M 9.609375 -6.25 C 9.609375 -6.9375 9.453125 -7.523438 9.140625 -8.015625 C 8.835938 -8.515625 8.425781 -8.894531 7.90625 -9.15625 C 7.382812 -9.414062 6.804688 -9.546875 6.171875 -9.546875 C 5.253906 -9.546875 4.472656 -9.253906 3.828125 -8.671875 C 3.179688 -8.085938 2.8125 -7.28125 2.71875 -6.25 Z M 9.609375 -6.25 "/></g></g></g><g fill="#ffffff" fill-opacity="1"><g transform="translate(233.497693, 210.348692)"><g><path d="M 0.859375 -5.46875 C 0.859375 -6.59375 1.082031 -7.578125 1.53125 -8.421875 C 1.976562 -9.265625 2.601562 -9.914062 3.40625 -10.375 C 4.207031 -10.84375 5.128906 -11.078125 6.171875 -11.078125 C 7.503906 -11.078125 8.601562 -10.75 9.46875 -10.09375 C 10.34375 -9.445312 10.921875 -8.550781 11.203125 -7.40625 L 9.25 -7.40625 C 9.0625 -8.0625 8.695312 -8.582031 8.15625 -8.96875 C 7.625 -9.351562 6.960938 -9.546875 6.171875 -9.546875 C 5.128906 -9.546875 4.289062 -9.191406 3.65625 -8.484375 C 3.019531 -7.773438 2.703125 -6.769531 2.703125 -5.46875 C 2.703125 -4.15625 3.019531 -3.140625 3.65625 -2.421875 C 4.289062 -1.710938 5.128906 -1.359375 6.171875 -1.359375 C 6.960938 -1.359375 7.625 -1.539062 8.15625 -1.90625 C 8.6875 -2.28125 9.050781 -2.8125 9.25 -3.5 L 11.203125 -3.5 C 10.910156 -2.382812 10.328125 -1.492188 9.453125 -0.828125 C 8.578125 -0.160156 7.484375 0.171875 6.171875 0.171875 C 5.128906 0.171875 4.207031 -0.0546875 3.40625 -0.515625 C 2.601562 -0.984375 1.976562 -1.640625 1.53125 -2.484375 C 1.082031 -3.335938 0.859375 -4.332031 0.859375 -5.46875 Z M 0.859375 -5.46875 "/></g></g></g><g fill="#ffffff" fill-opacity="1"><g transform="translate(244.812752, 210.348692)"><g><path d="M 11.203125 -10.90625 L 11.203125 0 L 9.390625 0 L 9.390625 -1.609375 C 9.046875 -1.054688 8.5625 -0.625 7.9375 -0.3125 C 7.320312 0 6.644531 0.15625 5.90625 0.15625 C 5.0625 0.15625 4.300781 -0.015625 3.625 -0.359375 C 2.945312 -0.710938 2.410156 -1.238281 2.015625 -1.9375 C 1.628906 -2.644531 1.4375 -3.503906 1.4375 -4.515625 L 1.4375 -10.90625 L 3.21875 -10.90625 L 3.21875 -4.75 C 3.21875 -3.675781 3.488281 -2.847656 4.03125 -2.265625 C 4.582031 -1.691406 5.328125 -1.40625 6.265625 -1.40625 C 7.234375 -1.40625 7.992188 -1.703125 8.546875 -2.296875 C 9.109375 -2.898438 9.390625 -3.769531 9.390625 -4.90625 L 9.390625 -10.90625 Z M 11.203125 -10.90625 "/></g></g></g><g fill="#ffffff" fill-opacity="1"><g transform="translate(256.784073, 210.348692)"><g><path d="M 3.734375 -9.40625 L 3.734375 -2.984375 C 3.734375 -2.453125 3.847656 -2.078125 4.078125 -1.859375 C 4.304688 -1.640625 4.695312 -1.53125 5.25 -1.53125 L 6.578125 -1.53125 L 6.578125 0 L 4.953125 0 C 3.941406 0 3.179688 -0.226562 2.671875 -0.6875 C 2.171875 -1.15625 1.921875 -1.921875 1.921875 -2.984375 L 1.921875 -9.40625 L 0.515625 -9.40625 L 0.515625 -10.90625 L 1.921875 -10.90625 L 1.921875 -13.640625 L 3.734375 -13.640625 L 3.734375 -10.90625 L 6.578125 -10.90625 L 6.578125 -9.40625 Z M 3.734375 -9.40625 "/></g></g></g><g fill="#ffffff" fill-opacity="1"><g transform="translate(263.266635, 210.348692)"><g><path d="M 2.46875 -12.671875 C 2.125 -12.671875 1.832031 -12.789062 1.59375 -13.03125 C 1.351562 -13.269531 1.234375 -13.5625 1.234375 -13.90625 C 1.234375 -14.25 1.351562 -14.539062 1.59375 -14.78125 C 1.832031 -15.019531 2.125 -15.140625 2.46875 -15.140625 C 2.800781 -15.140625 3.082031 -15.019531 3.3125 -14.78125 C 3.539062 -14.539062 3.65625 -14.25 3.65625 -13.90625 C 3.65625 -13.5625 3.539062 -13.269531 3.3125 -13.03125 C 3.082031 -12.789062 2.800781 -12.671875 2.46875 -12.671875 Z M 3.34375 -10.90625 L 3.34375 0 L 1.53125 0 L 1.53125 -10.90625 Z M 3.34375 -10.90625 "/></g></g></g><g fill="#ffffff" fill-opacity="1"><g transform="translate(267.402564, 210.348692)"><g><path d="M 6.28125 0.171875 C 5.257812 0.171875 4.332031 -0.0546875 3.5 -0.515625 C 2.675781 -0.984375 2.03125 -1.644531 1.5625 -2.5 C 1.09375 -3.351562 0.859375 -4.34375 0.859375 -5.46875 C 0.859375 -6.582031 1.097656 -7.566406 1.578125 -8.421875 C 2.066406 -9.273438 2.726562 -9.929688 3.5625 -10.390625 C 4.394531 -10.847656 5.328125 -11.078125 6.359375 -11.078125 C 7.398438 -11.078125 8.335938 -10.847656 9.171875 -10.390625 C 10.003906 -9.929688 10.660156 -9.273438 11.140625 -8.421875 C 11.628906 -7.578125 11.875 -6.59375 11.875 -5.46875 C 11.875 -4.34375 11.625 -3.351562 11.125 -2.5 C 10.632812 -1.644531 9.960938 -0.984375 9.109375 -0.515625 C 8.265625 -0.0546875 7.320312 0.171875 6.28125 0.171875 Z M 6.28125 -1.40625 C 6.9375 -1.40625 7.546875 -1.554688 8.109375 -1.859375 C 8.679688 -2.171875 9.144531 -2.628906 9.5 -3.234375 C 9.851562 -3.847656 10.03125 -4.59375 10.03125 -5.46875 C 10.03125 -6.34375 9.851562 -7.082031 9.5 -7.6875 C 9.15625 -8.300781 8.703125 -8.753906 8.140625 -9.046875 C 7.585938 -9.347656 6.988281 -9.5 6.34375 -9.5 C 5.675781 -9.5 5.066406 -9.347656 4.515625 -9.046875 C 3.972656 -8.753906 3.535156 -8.300781 3.203125 -7.6875 C 2.867188 -7.082031 2.703125 -6.34375 2.703125 -5.46875 C 2.703125 -4.582031 2.863281 -3.832031 3.1875 -3.21875 C 3.519531 -2.613281 3.957031 -2.160156 4.5 -1.859375 C 5.039062 -1.554688 5.632812 -1.40625 6.28125 -1.40625 Z M 6.28125 -1.40625 "/></g></g></g><g fill="#ffffff" fill-opacity="1"><g transform="translate(279.373884, 210.348692)"><g><path d="M 6.84375 -11.09375 C 8.164062 -11.09375 9.238281 -10.691406 10.0625 -9.890625 C 10.882812 -9.085938 11.296875 -7.929688 11.296875 -6.421875 L 11.296875 0 L 9.5 0 L 9.5 -6.171875 C 9.5 -7.253906 9.226562 -8.082031 8.6875 -8.65625 C 8.144531 -9.238281 7.40625 -9.53125 6.46875 -9.53125 C 5.507812 -9.53125 4.75 -9.226562 4.1875 -8.625 C 3.625 -8.03125 3.34375 -7.164062 3.34375 -6.03125 L 3.34375 0 L 1.53125 0 L 1.53125 -10.90625 L 3.34375 -10.90625 L 3.34375 -9.34375 C 3.695312 -9.90625 4.179688 -10.335938 4.796875 -10.640625 C 5.421875 -10.941406 6.101562 -11.09375 6.84375 -11.09375 Z M 6.84375 -11.09375 "/></g></g></g></svg>